<?xml version="1.0" encoding="UTF-8"?>
<svg version="1.1" xmlns="http://www.w3.org/2000/svg" width="500" height="500">
<path d="M0 0 C5.01735084 3.63385794 7.22998754 7.50246262 9.1875 13.375 C9.8491864 21.1828995 7.84565345 26.03332138 3 32.125 C-0.78287428 35.15129943 -5.80811517 38.375 -10.8125 38.375 C-11.05613281 39.21546875 -11.29976562 40.0559375 -11.55078125 40.921875 C-12.96129301 44.78222297 -14.8722905 48.13318851 -17 51.625 C-17.90621356 53.13856586 -18.81107267 54.65294319 -19.71484375 56.16796875 C-20.45710205 57.41006104 -20.45710205 57.41006104 -21.21435547 58.67724609 C-24.21136627 63.73636148 -27.13166243 68.83986598 -30.0625 73.9375 C-34.50373451 81.65157924 -38.95870059 89.35711127 -43.44946289 97.04248047 C-44.63693903 99.07543962 -45.82237033 101.10959476 -47.00561523 103.14501953 C-49.4458339 107.34144817 -51.89332597 111.52880889 -54.4296875 115.66796875 C-60.05045331 124.39581555 -60.05045331 124.39581555 -60.8125 134.375 C-59.2626581 138.64822663 -57.10190361 142.45677169 -54.8125 146.375 C-54.4731543 146.9618457 -54.13380859 147.54869141 -53.78417969 148.15332031 C-51.80558269 151.5722063 -49.79842841 154.97326974 -47.77734375 158.3671875 C-44.27795214 164.25596803 -40.85775169 170.1900102 -37.4375 176.125 C-36.79603027 177.2375415 -36.15456055 178.35008301 -35.49365234 179.49633789 C-31.98001143 185.59578091 -28.4792413 191.70235725 -24.99365234 197.81787109 C-23.06826823 201.19468893 -21.13714865 204.56820206 -19.20458984 207.94091797 C-18.26474285 209.58424917 -17.3276322 211.22914792 -16.39306641 212.87548828 C-15.04091353 215.25503295 -13.67802515 217.62811059 -12.3125 220 C-11.91506592 220.70519775 -11.51763184 221.41039551 -11.1081543 222.13696289 C-8.73233141 226.23343746 -6.73320652 229.41912481 -2.10644531 230.93334961 C2.80194606 231.87835599 7.88516213 231.56089471 12.8671875 231.56030273 C14.91688146 231.56247812 16.96602691 231.58062248 19.015625 231.59960938 C30.19783913 232.25177704 30.19783913 232.25177704 39.83691406 227.74291992 C43.33077358 223.30602272 46.03617467 218.34680838 48.6875 213.375 C54.40895919 202.86894828 60.44873998 192.55664932 66.50537109 182.24121094 C68.09662118 179.52985012 69.68372019 176.81610703 71.26953125 174.1015625 C72.17952483 172.54677978 73.08967045 170.99208604 74 169.4375 C74.62165039 168.37293579 74.62165039 168.37293579 75.25585938 167.28686523 C78.07250091 162.48999909 78.07250091 162.48999909 79.1875 161.375 C82.13996354 161.27973194 85.06898421 161.24947548 88.02172852 161.26147461 C89.41183136 161.26125557 89.41183136 161.26125557 90.83001709 161.2610321 C93.90883687 161.26173162 96.98759697 161.26952579 100.06640625 161.27734375 C102.19490018 161.27920779 104.32339453 161.28063176 106.45188904 161.28163147 C112.0661232 161.28545772 117.68033168 161.29528892 123.29455566 161.30633545 C129.01863253 161.31654727 134.74271353 161.3211286 140.46679688 161.32617188 C151.70704256 161.33691109 162.94726915 161.3539888 174.1875 161.375 C174.5175 162.035 174.8475 162.695 175.1875 163.375 C174.4375 165.1171875 174.4375 165.1171875 173.1875 167.25 C172.72037598 168.05671143 172.25325195 168.86342285 171.77197266 169.69458008 C170.98765869 171.02138794 170.98765869 171.02138794 170.1875 172.375 C169.64786621 173.30272217 169.10823242 174.23044434 168.55224609 175.1862793 C167.38123131 177.19932533 166.2071048 179.21056366 165.03027344 181.22021484 C162.56188461 185.44603895 160.12411128 189.6891866 157.68530273 193.93212891 C155.16533422 198.31242615 152.63411448 202.68617945 150.10302734 207.06005859 C148.17430798 210.39782963 146.25298094 213.73978392 144.33203125 217.08203125 C143.09663667 219.22151731 141.86097016 221.36084639 140.625 223.5 C140.06570801 224.47686768 139.50641602 225.45373535 138.93017578 226.46020508 C132.66242376 237.27353998 125.71357911 248.40840828 113.1875 252.375 C109.20292042 253.16690387 105.21062151 253.81348058 101.1875 254.375 C100.8575 255.365 100.5275 256.355 100.1875 257.375 C94.81901077 261.25858795 89.82694226 262.63242587 83.1875 262.375 C76.42508768 260.42650832 71.38589461 256.35347011 67.25 250.75 C65.36543049 244.76372039 64.79219745 238.61152653 67.32421875 232.73828125 C70.53104948 227.64606973 74.18187451 223.57668765 80.1015625 221.80078125 C86.47148678 220.50055326 91.70161586 221.00997867 97.4140625 224.1484375 C99.1875 225.375 99.1875 225.375 101.8125 228.1875 C104.00948701 230.72394329 104.00948701 230.72394329 107.12133789 230.27954102 C110.78787701 229.19788424 111.58479336 228.26169378 113.62109375 225.08984375 C114.20745605 224.18347168 114.79381836 223.27709961 115.39794922 222.34326172 C118.45908112 217.26587541 121.3944461 212.13315344 124.25 206.9375 C124.83587891 205.88240234 125.42175781 204.82730469 126.02539062 203.74023438 C129.77923864 196.96997575 133.48856913 190.17538765 137.1875 183.375 C130.96276923 182.95223863 124.74647852 182.64533684 118.51074219 182.44116211 C116.39500433 182.35604807 114.28025603 182.24029101 112.16796875 182.0925293 C100.62731804 180.89351916 100.62731804 180.89351916 90.30258179 184.93026733 C87.01626192 188.95259614 84.97030828 193.48045831 83.05090332 198.27572632 C81.9296065 201.00204071 80.49202812 203.47373309 78.97265625 205.99609375 C78.06476446 207.60137042 77.15720669 209.20683605 76.25 210.8125 C72.31972655 217.72258862 68.31773517 224.58235709 64.1875 231.375 C63.742854 232.11032959 63.29820801 232.84565918 62.84008789 233.60327148 C59.54426944 238.97999652 56.37449297 243.91293464 51.0625 247.5 C50.03769531 248.21542969 50.03769531 248.21542969 48.9921875 248.9453125 C39.30274248 253.88450035 29.85435268 253.81311287 19.20996094 253.71118164 C16.56154087 253.68749142 13.914125 253.69064928 11.265625 253.69726562 C9.55988991 253.69169015 7.854159 253.68458109 6.1484375 253.67578125 C5.36802094 253.67669266 4.58760437 253.67760406 3.78353882 253.67854309 C-6.26128789 253.55052623 -15.40823378 250.95612772 -22.6875 243.8125 C-24.68775628 241.7238603 -26.1936197 239.80332045 -27.8125 237.375 C-30.27231426 236.89764442 -30.27231426 236.89764442 -33.18017578 236.94262695 C-34.86169235 236.91293571 -34.86169235 236.91293571 -36.57717896 236.88264465 C-37.79178802 236.87625473 -39.00639709 236.86986481 -40.2578125 236.86328125 C-41.49796112 236.84533005 -42.73810974 236.82737885 -44.01583862 236.80888367 C-47.31366068 236.76380026 -50.61128507 236.73155106 -53.90930176 236.70544434 C-57.27430805 236.67567269 -60.63907733 236.62913089 -64.00390625 236.58398438 C-70.60666179 236.49881922 -77.20943264 236.43056371 -83.8125 236.375 C-84.8125 232.375 -84.8125 232.375 -83.8125 223.375 C-97.0125 223.375 -110.2125 223.375 -123.8125 223.375 C-123.8125 219.745 -123.8125 216.115 -123.8125 212.375 C-109.2925 212.375 -94.7725 212.375 -79.8125 212.375 C-78.8125 216.375 -78.8125 216.375 -77.8125 224.375 C-59.9925 224.375 -42.1725 224.375 -23.8125 224.375 C-23.8125 223.715 -23.8125 223.055 -23.8125 222.375 C-24.658125 222.45363281 -25.50375 222.53226563 -26.375 222.61328125 C-30.19430149 222.69574344 -33.1507858 222.50458844 -36.8125 221.375 C-40.43680856 217.49263149 -42.53677924 213.11429582 -44.8125 208.375 C-45.80249349 206.64008494 -46.8009541 204.90993788 -47.8125 203.1875 C-49.8125 199.64144737 -49.8125 199.64144737 -49.8125 197.375 C-50.83722412 197.34994385 -51.86194824 197.3248877 -52.91772461 197.29907227 C-56.70659676 197.20515516 -60.49527881 197.10489683 -64.28393555 197.00268555 C-65.92614303 196.95927703 -67.56839739 196.91760642 -69.21069336 196.87768555 C-71.56638745 196.8201256 -73.92184428 196.75639108 -76.27734375 196.69140625 C-77.01589096 196.67469376 -77.75443817 196.65798126 -78.5153656 196.64076233 C-83.69862829 196.48887171 -83.69862829 196.48887171 -84.8125 195.375 C-84.9104057 193.87761876 -84.94224864 192.37557108 -84.9375 190.875 C-84.94136719 189.65296875 -84.94136719 189.65296875 -84.9453125 188.40625 C-84.8125 186.375 -84.8125 186.375 -83.8125 185.375 C-80.9281618 185.28634792 -78.06787842 185.25978704 -75.18359375 185.27734375 C-73.88724754 185.27946617 -73.88724754 185.27946617 -72.56471252 185.28163147 C-69.79310708 185.28724761 -67.0215812 185.29980281 -64.25 185.3125 C-62.3756522 185.31751292 -60.50130315 185.32207619 -58.62695312 185.32617188 C-54.02210456 185.33722228 -49.41731579 185.3544977 -44.8125 185.375 C-45.1425 184.385 -45.4725 183.395 -45.8125 182.375 C-47.17181641 182.52775391 -47.17181641 182.52775391 -48.55859375 182.68359375 C-52.73427617 182.82941123 -55.82126993 182.6675186 -59.8125 181.375 C-63.58534619 177.7509525 -65.76291067 172.85620952 -67.94677734 168.16992188 C-68.88225524 166.15646635 -68.88225524 166.15646635 -70.55078125 163.515625 C-71.8125 161.375 -71.8125 161.375 -71.8125 159.375 C-80.46185708 159.35181109 -89.11120343 159.33405152 -97.76058483 159.32318783 C-101.77700589 159.31797333 -105.79340565 159.31090172 -109.80981445 159.29956055 C-113.68718487 159.28868072 -117.56453482 159.28271236 -121.44191933 159.28012276 C-122.91985712 159.27827769 -124.39779382 159.27467476 -125.87572289 159.26926994 C-127.94866719 159.26199188 -130.02152736 159.26101191 -132.09448242 159.26147461 C-133.27362717 159.259254 -134.45277191 159.25703339 -135.66764832 159.25474548 C-138.50823261 159.36336526 -141.0526471 159.72102724 -143.8125 160.375 C-143.4825 161.365 -143.1525 162.355 -142.8125 163.375 C-143.1425 166.345 -143.4725 169.315 -143.8125 172.375 C-155.0325 172.705 -166.2525 173.035 -177.8125 173.375 C-177.8125 169.415 -177.8125 165.455 -177.8125 161.375 C-162.9625 160.88 -162.9625 160.88 -147.8125 160.375 C-147.8125 156.085 -147.8125 151.795 -147.8125 147.375 C-122.4025 147.045 -96.9925 146.715 -70.8125 146.375 C-70.8125 146.045 -70.8125 145.715 -70.8125 145.375 C-71.49957031 145.31183594 -72.18664062 145.24867188 -72.89453125 145.18359375 C-75.68397859 144.80448431 -78.16351106 144.3347786 -80.8125 143.375 C-83.99531321 138.69439233 -84.45950936 133.91580087 -83.8125 128.375 C-83.22588609 125.68428739 -82.51009175 123.04030077 -81.8125 120.375 C-83.02808594 120.38660156 -84.24367188 120.39820313 -85.49609375 120.41015625 C-87.08072764 120.41953278 -88.66536318 120.42863313 -90.25 120.4375 C-91.05244141 120.44587891 -91.85488281 120.45425781 -92.68164062 120.46289062 C-94.72545221 120.4715143 -96.76933902 120.4272815 -98.8125 120.375 C-99.1425 120.045 -99.4725 119.715 -99.8125 119.375 C-99.8125 115.745 -99.8125 112.115 -99.8125 108.375 C-85.9525 108.375 -72.0925 108.375 -57.8125 108.375 C-57.8125 107.385 -57.8125 106.395 -57.8125 105.375 C-62.4325 105.375 -67.0525 105.375 -71.8125 105.375 C-72.1425 104.715 -72.4725 104.055 -72.8125 103.375 C-71.91625977 101.45141602 -71.91625977 101.45141602 -70.50390625 99.12890625 C-69.75463867 97.87303711 -69.75463867 97.87303711 -68.99023438 96.59179688 C-68.45720703 95.71587891 -67.92417969 94.83996094 -67.375 93.9375 C-66.32870679 92.21321899 -65.28806602 90.48549166 -64.25390625 88.75390625 C-63.78670166 87.9863501 -63.31949707 87.21879395 -62.83813477 86.42797852 C-61.58904215 84.31019825 -61.58904215 84.31019825 -61.8125 81.375 C-80.6225 80.88 -80.6225 80.88 -99.8125 80.375 C-99.8125 77.075 -99.8125 73.775 -99.8125 70.375 C-96.22377202 69.47781801 -93.5967789 69.25366607 -89.94238281 69.26147461 C-88.76146057 69.26155014 -87.58053833 69.26162567 -86.36383057 69.26170349 C-85.09392273 69.26686478 -83.82401489 69.27202606 -82.515625 69.27734375 C-81.21171814 69.2787587 -79.90781128 69.28017365 -78.56439209 69.28163147 C-75.10546945 69.28544133 -71.64658909 69.29525849 -68.18768311 69.30633545 C-64.65507581 69.31658254 -61.12246164 69.32113615 -57.58984375 69.32617188 C-50.66404518 69.33688218 -43.73827462 69.35394016 -36.8125 69.375 C-36.4825 68.385 -36.1525 67.395 -35.8125 66.375 C-40.4325 66.375 -45.0525 66.375 -49.8125 66.375 C-48.8125 61.375 -48.8125 61.375 -45.8125 54.375 C-56.0425 54.375 -66.2725 54.375 -76.8125 54.375 C-76.8125 50.745 -76.8125 47.115 -76.8125 43.375 C-59.6525 43.045 -42.4925 42.715 -24.8125 42.375 C-24.4825 41.715 -24.1525 41.055 -23.8125 40.375 C-27.4425 40.045 -31.0725 39.715 -34.8125 39.375 C-32.8125 34.375 -32.8125 34.375 -31.0625 31.0625 C-29.64535611 26.88192553 -30.01159689 25.38109822 -31.24609375 21.34375 C-32.61111323 16.59913057 -32.17750938 12.67777088 -30.1875 8.25 C-26.96944641 2.43274927 -22.20424472 -1.1172351 -15.9453125 -3.17578125 C-9.92297539 -4.44422222 -5.19475052 -3.1764622 0 0 Z " fill="#3DB3B6" transform="translate(250.8125,106.625)"/>
<path d="M0 0 C0.66216019 -0.0049649 1.32432037 -0.00992981 2.00654602 -0.01504517 C4.20579057 -0.02969028 6.40496265 -0.03647775 8.60424805 -0.04199219 C10.1396637 -0.04774807 11.67507935 -0.05350575 13.210495 -0.05926514 C16.43948704 -0.06978612 19.66845415 -0.0756195 22.89746094 -0.07910156 C27.00138303 -0.08454483 31.10496633 -0.10847736 35.20878315 -0.13707352 C38.38759759 -0.15587281 41.56633391 -0.1609149 44.7451992 -0.16243744 C46.25561534 -0.16543305 47.76603115 -0.17335472 49.27639198 -0.18662262 C63.06490501 -0.29895718 75.87228492 0.49534665 86.5534668 10.16113281 C88.88904227 12.64986078 90.72894621 15.28106498 92.5534668 18.16113281 C93.19026367 19.155 93.82706055 20.14886719 94.4831543 21.17285156 C98.1677579 27.04736108 101.5711667 33.0039112 104.87573242 39.09838867 C107.9454153 44.70216802 111.12884468 50.2413671 114.3034668 55.78613281 C114.82704773 56.70223328 114.82704773 56.70223328 115.36120605 57.63684082 C119.99386469 65.74227292 124.65314982 73.8308711 129.45874023 81.83544922 C132.04798484 86.17858485 134.33199944 90.61813201 136.5534668 95.16113281 C131.93852522 96.30748619 127.45265923 96.3569809 122.72753906 96.41748047 C121.84887177 96.43208313 120.97020447 96.44668579 120.06491089 96.46173096 C111.99681309 96.58728563 103.92777208 96.65638378 95.85890293 96.70957375 C90.44215484 96.74540672 85.02688306 96.79892253 79.61083984 96.89501953 C74.36591513 96.98778486 69.12229878 97.03648201 63.87660027 97.05396652 C61.88017795 97.06806212 59.8838019 97.09770523 57.88784981 97.14326859 C42.29260217 97.48205626 42.29260217 97.48205626 38.0533905 94.26225281 C36.44667556 91.91439954 35.48846253 89.83841171 34.5534668 87.16113281 C33.75131712 85.57048614 32.93424338 83.98719649 32.09643555 82.41503906 C30.90300206 80.05373162 29.72658272 77.6928593 28.60620117 75.29589844 C26.37321562 70.86193519 26.37321562 70.86193519 22.33813477 68.24560547 C19.96598009 67.70388364 19.96598009 67.70388364 17.65722656 67.46850586 C12.93279524 66.77823558 9.97529793 63.60213809 6.8034668 60.28613281 C2.98153889 54.9778996 1.58445421 49.68663531 2.5534668 43.16113281 C4.80844329 35.97761488 9.53187507 31.48942276 15.9284668 27.78613281 C22.35523708 26.25594941 27.88768061 26.55471723 33.69799805 29.82519531 C38.44330824 33.24181865 41.85414857 37.54599432 43.5534668 43.16113281 C43.46806546 45.26861741 43.31582305 47.3739085 43.1159668 49.47363281 C43.09814508 59.09727029 43.09814508 59.09727029 52.5534668 73.16113281 C67.7334668 73.16113281 82.9134668 73.16113281 98.5534668 73.16113281 C93.569311 64.48500976 88.57579557 55.81510071 83.5534668 47.16113281 C82.65072021 45.60386475 82.65072021 45.60386475 81.72973633 44.01513672 C80.11831627 41.2453786 78.49477867 38.48319012 76.8659668 35.72363281 C76.14618652 34.48371582 76.14618652 34.48371582 75.41186523 33.21875 C74.95972656 32.45852539 74.50758789 31.69830078 74.04174805 30.91503906 C73.46227417 29.9299939 73.46227417 29.9299939 72.87109375 28.92504883 C70.56659952 25.84000698 68.18197487 24.3706355 64.5534668 23.16113281 C62.60565851 23.07236106 60.65490398 23.04351974 58.70507812 23.04760742 C57.5040596 23.04768295 56.30304108 23.04775848 55.06562805 23.0478363 C53.76868515 23.05299759 52.47174225 23.05815887 51.13549805 23.06347656 C49.79457146 23.06534204 48.45364419 23.06676533 47.11271667 23.06776428 C43.58637607 23.07157925 40.06007675 23.08140083 36.53375244 23.09246826 C32.93420978 23.10270431 29.33466044 23.1072666 25.73510742 23.11230469 C18.67454367 23.12302401 11.61400793 23.14008819 4.5534668 23.16113281 C4.17125977 23.84776001 3.78905273 24.53438721 3.39526367 25.24182129 C-3.41478991 37.46621576 -10.22217901 49.67567519 -17.4465332 61.66113281 C-23.3201844 71.48690603 -29.0135133 81.39589096 -34.55078125 91.41503906 C-37.12233341 96.05839948 -39.71989213 100.6654747 -42.50512695 105.18457031 C-42.97321777 105.94882324 -43.44130859 106.71307617 -43.92358398 107.50048828 C-44.77353852 108.87564325 -45.6364814 110.24291607 -46.51635742 111.59912109 C-49.39577018 116.26626714 -50.72687281 120.63119786 -50.4465332 126.16113281 C-49.37539205 129.5642271 -49.37539205 129.5642271 -47.3840332 132.72363281 C-47.03550293 133.33295654 -46.68697266 133.94228027 -46.32788086 134.57006836 C-45.52401032 135.9665944 -44.708719 137.35658417 -43.88452148 138.74121094 C-42.23406482 141.51868571 -40.61916633 144.31546838 -39.00512695 147.11425781 C-36.06285517 152.20176509 -33.10857402 157.28152784 -30.10766602 162.3347168 C-28.99545745 164.22713868 -27.90630742 166.13329291 -26.84008789 168.05200195 C-26.33123047 168.95168701 -25.82237305 169.85137207 -25.2980957 170.77832031 C-24.85546387 171.57995605 -24.41283203 172.3815918 -23.95678711 173.20751953 C-21.68342141 176.14826837 -19.12186408 176.68325695 -15.62231445 177.54785156 C-11.27151707 178.7741984 -8.49481618 181.42379155 -6.19262695 185.23925781 C-3.51194644 190.73138374 -2.31379405 195.34735425 -4.10668945 201.38378906 C-6.70014682 208.10881486 -10.65654431 211.96692871 -16.8215332 215.53613281 C-23.59061908 217.14781993 -29.30489495 216.58627723 -35.4465332 213.16113281 C-39.8921092 209.43925523 -43.95995393 204.91184804 -44.7277832 198.99316406 C-44.77841808 195.31580582 -44.46157873 192.21767892 -43.5090332 188.63769531 C-42.71091295 182.25050601 -46.90930711 177.17252423 -50.1340332 171.97363281 C-50.82354454 170.82529314 -51.51069454 169.67553255 -52.19555664 168.52441406 C-53.58838862 166.18850474 -54.99085841 163.85890816 -56.40307617 161.53466797 C-59.38770654 156.60735345 -62.3050727 151.64353115 -65.1965332 146.66113281 C-65.68468506 145.84491455 -66.17283691 145.02869629 -66.67578125 144.18774414 C-71.57541137 135.77265324 -75.05487218 126.82657707 -73.00195312 117.04223633 C-70.90529317 109.42889544 -67.29171552 102.92403193 -63.3840332 96.09863281 C-62.70039316 94.88882152 -62.01745791 93.67861171 -61.33520508 92.46801758 C-57.01168361 84.81676832 -52.60068087 77.21733899 -48.10668945 69.66503906 C-44.63918756 63.82353821 -41.2697877 57.92523553 -37.8840332 52.03613281 C-33.43182049 44.29590197 -28.93967663 36.58773672 -24.31005859 28.95239258 C-21.71729165 24.65977746 -19.29978987 20.29078555 -16.9230957 15.87597656 C-15.21784037 12.74065261 -13.46964351 9.63360329 -11.6965332 6.53613281 C-10.83801758 5.03179687 -10.83801758 5.03179687 -9.9621582 3.49707031 C-7.29791409 -0.60916159 -4.63910079 0.0263989 0 0 Z " fill="#3CB1B4" transform="translate(291.446533203125,114.8388671875)"/>
<path d="M0 0 C5.01735084 3.63385794 7.22998754 7.50246262 9.1875 13.375 C9.8491864 21.1828995 7.84565345 26.03332138 3 32.125 C-0.78287428 35.15129943 -5.80811517 38.375 -10.8125 38.375 C-11.8025 41.345 -11.8025 41.345 -12.8125 44.375 C-15.8125 44.375 -15.8125 44.375 -17.8125 43.375 C-20.93035113 44.02144661 -20.93035113 44.02144661 -21.8125 46.375 C-22.8025 46.045 -23.7925 45.715 -24.8125 45.375 C-26.48400987 45.25986168 -28.1594963 45.19863216 -29.8347168 45.16967773 C-31.36596443 45.1397599 -31.36596443 45.1397599 -32.92814636 45.10923767 C-34.02822525 45.09252518 -35.12830414 45.07581268 -36.26171875 45.05859375 C-37.3894722 45.03781265 -38.51722565 45.01703156 -39.67915344 44.99562073 C-43.2860396 44.93017153 -46.89299929 44.87126156 -50.5 44.8125 C-52.94336702 44.76931039 -55.38672656 44.72569596 -57.83007812 44.68164062 C-63.82414074 44.57449484 -69.81827671 44.47271971 -75.8125 44.375 C-75.8125 47.345 -75.8125 50.315 -75.8125 53.375 C-65.2525 53.375 -54.6925 53.375 -43.8125 53.375 C-43.8125 55.025 -43.8125 56.675 -43.8125 58.375 C-44.4725 58.375 -45.1325 58.375 -45.8125 58.375 C-45.8125 59.365 -45.8125 60.355 -45.8125 61.375 C-46.4725 61.375 -47.1325 61.375 -47.8125 61.375 C-47.1525 59.065 -46.4925 56.755 -45.8125 54.375 C-56.0425 54.375 -66.2725 54.375 -76.8125 54.375 C-76.8125 50.745 -76.8125 47.115 -76.8125 43.375 C-59.6525 43.045 -42.4925 42.715 -24.8125 42.375 C-24.3175 41.385 -24.3175 41.385 -23.8125 40.375 C-27.4425 40.045 -31.0725 39.715 -34.8125 39.375 C-32.8125 34.375 -32.8125 34.375 -31.0625 31.0625 C-29.64535611 26.88192553 -30.01159689 25.38109822 -31.24609375 21.34375 C-32.61111323 16.59913057 -32.17750938 12.67777088 -30.1875 8.25 C-26.96944641 2.43274927 -22.20424472 -1.1172351 -15.9453125 -3.17578125 C-9.92297539 -4.44422222 -5.19475052 -3.1764622 0 0 Z " fill="#38A9AC" transform="translate(250.8125,106.625)"/>
<path d="M0 0 C2.87194193 2.54508966 4.52902124 5.42190315 6.40625 8.75 C6.72779053 9.31647247 7.04933105 9.88294495 7.38061523 10.46658325 C8.42495945 12.30852309 9.46255129 14.15416906 10.5 16 C11.57619673 17.90369614 12.65391954 19.80652235 13.73181152 21.70925903 C14.4525056 22.98162639 15.17263883 24.25431158 15.89221191 25.52731323 C18.06696569 29.37077855 20.26874639 33.19673772 22.5 37.0078125 C23.26860352 38.32072266 23.26860352 38.32072266 24.05273438 39.66015625 C24.99879236 41.27139131 25.94788694 42.88084825 26.90039062 44.48828125 C30 49.78123785 30 49.78123785 30 52 C27.03 51.01 24.06 50.02 21 49 C20.67 50.65 20.34 52.3 20 54 C-0.13 54.33 -20.26 54.66 -41 55 C-41.66 57.64 -42.32 60.28 -43 63 C-44 60 -44 60 -43 51 C-56.2 51 -69.4 51 -83 51 C-83 47.37 -83 43.74 -83 40 C-68.48 40 -53.96 40 -39 40 C-38 44 -38 44 -37 52 C-19.18 52 -1.36 52 17 52 C17 51.34 17 50.68 17 50 C16.10796875 49.99742187 15.2159375 49.99484375 14.296875 49.9921875 C4.67425968 49.67425968 4.67425968 49.67425968 1.25 46.25 C0.16139418 43.41962488 -0.43649089 40.95842284 -1 38 C-1.67254506 36.78327948 -2.36200588 35.57584707 -3.0625 34.375 C-5.71185892 29.38234528 -5.36513595 24.51760988 -5 19 C-4.34 19 -3.68 19 -3 19 C-3 17.68 -3 16.36 -3 15 C-13.23 15 -23.46 15 -34 15 C-34 14.67 -34 14.34 -34 14 C-23.77 14 -13.54 14 -3 14 C-3 12.35 -3 10.7 -3 9 C-2.34 9 -1.68 9 -1 9 C-1 9.66 -1 10.32 -1 11 C0.32 11.33 1.64 11.66 3 12 C2.649375 11.4225 2.29875 10.845 1.9375 10.25 C0.85082593 7.64198224 1.06934867 6.60582371 2 4 C1.34 4 0.68 4 0 4 C0 2.68 0 1.36 0 0 Z " fill="#3DB2B5" transform="translate(210,279)"/>
<path d="M0 0 C1.5625 1.1875 1.5625 1.1875 3 3 C2.36582359 8.79565075 -0.7657119 13.27342422 -3.6875 18.1875 C-4.20505859 19.10208984 -4.72261719 20.01667969 -5.25585938 20.95898438 C-9.1985427 27.61195561 -9.1985427 27.61195561 -13.33203125 29.61328125 C-16 30 -16 30 -17 30 C-17 28.02 -17 26.04 -17 24 C-21.62 24 -26.24 24 -31 24 C-31 22.68 -31 21.36 -31 20 C-30.01 20 -29.02 20 -28 20 C-28 19.01 -28 18.02 -28 17 C-27.34 17 -26.68 17 -26 17 C-26 15.35 -26 13.7 -26 12 C-36.56 12 -47.12 12 -58 12 C-58 9.03 -58 6.06 -58 3 C-50.79177849 2.94936765 -43.5836027 2.91429504 -36.37524414 2.89013672 C-33.92210171 2.88006755 -31.46897131 2.86641139 -29.01586914 2.84912109 C-25.49362217 2.82491321 -21.97153361 2.81352612 -18.44921875 2.8046875 C-16.79910042 2.78920364 -16.79910042 2.78920364 -15.11564636 2.77340698 C-13.58439873 2.77318039 -13.58439873 2.77318039 -12.0222168 2.77294922 C-11.12286911 2.768508 -10.22352142 2.76406677 -9.29692078 2.75949097 C-7 3 -7 3 -4 5 C-3.67 4.01 -3.34 3.02 -3 2 C-2.01 2 -1.02 2 0 2 C0 1.34 0 0.68 0 0 Z " fill="#40B5B8" transform="translate(233,148)"/>
<path d="M0 0 C12.54 0 25.08 0 38 0 C38 3.63 38 7.26 38 11 C25.46 11 12.92 11 0 11 C0 7.37 0 3.74 0 0 Z " fill="#B8BFBF" transform="translate(118,159)"/>
<path d="M0 0 C1.64510941 0.00015915 3.29022379 0.00585551 4.93530273 0.01586914 C6.23164894 0.01799156 6.23164894 0.01799156 7.55418396 0.02015686 C10.32578941 0.025773 13.09731528 0.0383282 15.86889648 0.05102539 C17.74324428 0.05603831 19.61759334 0.06060158 21.49194336 0.06469727 C26.09679192 0.07574767 30.70158069 0.09302309 35.30639648 0.11352539 C35.30639648 3.74352539 35.30639648 7.37352539 35.30639648 11.11352539 C22.10639648 11.11352539 8.90639648 11.11352539 -4.69360352 11.11352539 C-4.69360352 0.14426106 -4.69360352 0.14426106 0 0 Z " fill="#D6D8D9" transform="translate(109.693603515625,199.886474609375)"/>
<path d="M0 0 C13.86 0 27.72 0 42 0 C42.495 4.455 42.495 4.455 43 9 C28.81 9 14.62 9 0 9 C0 6.03 0 3.06 0 0 Z " fill="#D7D8D9" transform="translate(128,320)"/>
<path d="M0 0 C4.82380802 -0.0246519 9.64757967 -0.04283693 14.47143555 -0.05493164 C16.11369464 -0.05997174 17.75594923 -0.06680378 19.39819336 -0.07543945 C21.75375479 -0.08751926 24.10925709 -0.09323139 26.46484375 -0.09765625 C27.20339096 -0.10281754 27.94193817 -0.10797882 28.7028656 -0.11329651 C30.46898088 -0.1134925 32.23497146 -0.06194719 34 0 C35 1 35 1 35.1328125 3.03125 C35.13023437 3.8459375 35.12765625 4.660625 35.125 5.5 C35.12886719 6.72203125 35.12886719 6.72203125 35.1328125 7.96875 C35 10 35 10 34 11 C31.47905924 11.08847743 28.98569107 11.11527301 26.46484375 11.09765625 C25.33496788 11.09553383 25.33496788 11.09553383 24.18226624 11.09336853 C21.7673044 11.08775376 19.35243399 11.07519883 16.9375 11.0625 C15.30403779 11.0574869 13.67057414 11.05292366 12.03710938 11.04882812 C8.02470415 11.03777954 4.01236759 11.02050506 0 11 C0 7.37 0 3.74 0 0 Z " fill="#B8BFBF" transform="translate(127,276)"/>
<path d="M0 0 C11.55 0 23.1 0 35 0 C34.67 3.3 34.34 6.6 34 10 C22.78 10.33 11.56 10.66 0 11 C0 7.37 0 3.74 0 0 Z " fill="#CAD0D0" transform="translate(73,269)"/>
<path d="M0 0 C12.54 0 25.08 0 38 0 C38 1.32 38 2.64 38 4 C37.34 4 36.68 4 36 4 C36.495 5.485 36.495 5.485 37 7 C36.72428861 9.00875442 36.39764263 11.01178687 36 13 C35.34 13 34.68 13 34 13 C34 11.68 34 10.36 34 9 C33.14768799 8.97494385 32.29537598 8.9498877 31.41723633 8.92407227 C28.23955034 8.82864431 25.06201106 8.72942876 21.88452148 8.62768555 C20.51217224 8.5845116 19.13977533 8.54282499 17.76733398 8.50268555 C15.78877932 8.44455608 13.8104003 8.3805429 11.83203125 8.31640625 C10.04889526 8.26141968 10.04889526 8.26141968 8.22973633 8.20532227 C5.38595153 8.02453589 2.77093195 7.64190592 0 7 C0 4.69 0 2.38 0 0 Z " fill="#3EB6B9" transform="translate(169,294)"/>
<path d="M0 0 C2.2477975 2.05233685 3.0022242 3.00667261 4 6 C-0.65727857 7.18181659 -5.15229193 7.13410949 -9.92114258 7.11352539 C-10.80944763 7.11367142 -11.69775269 7.11381744 -12.61297607 7.1139679 C-15.54018624 7.11327293 -18.46733225 7.1055 -21.39453125 7.09765625 C-23.42762721 7.09579059 -25.46072362 7.09436739 -27.49382019 7.09336853 C-32.83838141 7.08955499 -38.18291536 7.07973462 -43.52746582 7.06866455 C-48.98380158 7.05842543 -54.44014177 7.05386555 -59.89648438 7.04882812 C-70.59766822 7.03811132 -81.29883184 7.02104885 -92 7 C-92.33 6.34 -92.66 5.68 -93 5 C-62.31 5 -31.62 5 0 5 C0 3.35 0 1.7 0 0 Z " fill="#164A4E" transform="translate(424,204)"/>
<path d="M0 0 C14.52 0 29.04 0 44 0 C44.495 1.98 44.495 1.98 45 4 C44.34 4.33 43.68 4.66 43 5 C43 3.68 43 2.36 43 1 C29.14 1 15.28 1 1 1 C1 3.97 1 6.94 1 10 C15.19 10 29.38 10 44 10 C44.33 9.34 44.66 8.68 45 8 C45.495 9.98 45.495 9.98 46 12 C64.15 12 82.3 12 101 12 C101 12.66 101 13.32 101 14 C81.53 14.33 62.06 14.66 42 15 C41.34 17.64 40.68 20.28 40 23 C39 20 39 20 40 11 C26.8 11 13.6 11 0 11 C0 7.37 0 3.74 0 0 Z " fill="#4F6263" transform="translate(127,319)"/>
<path d="M0 0 C1.95619978 3.55951647 2.08467303 5.93569479 2 10 C2.32483418 11.33542939 2.6550855 12.66961551 3 14 C2.67 14.33 2.34 14.66 2 15 C4.475 15.495 4.475 15.495 7 16 C7 17.98 7 19.96 7 22 C-6.86 22 -20.72 22 -35 22 C-35 25.3 -35 28.6 -35 32 C-35.33 32 -35.66 32 -36 32 C-36 28.37 -36 24.74 -36 21 C-22.14 21 -8.28 21 6 21 C6 20.01 6 19.02 6 18 C1.38 18 -3.24 18 -8 18 C-8.33 17.34 -8.66 16.68 -9 16 C-8.28735352 14.30419922 -8.28735352 14.30419922 -7.12890625 12.3046875 C-6.71962891 11.58925781 -6.31035156 10.87382812 -5.88867188 10.13671875 C-5.45103516 9.39035156 -5.01339844 8.64398438 -4.5625 7.875 C-3.9118457 6.74384766 -3.9118457 6.74384766 -3.24804688 5.58984375 C-2.17251034 3.72242866 -1.08715861 1.86067303 0 0 Z " fill="#277A7C" transform="translate(187,194)"/>
<path d="M0 0 C5.28 0 10.56 0 16 0 C16 1.98 16 3.96 16 6 C-2.81 6.495 -2.81 6.495 -22 7 C-22 9.31 -22 11.62 -22 14 C-20.61494263 14.03758423 -20.61494263 14.03758423 -19.2019043 14.07592773 C-15.77453584 14.17109045 -12.34733539 14.27032214 -8.92016602 14.37231445 C-7.43713985 14.4156133 -5.95406546 14.45729199 -4.47094727 14.49731445 C-2.33855661 14.55513958 -0.20640758 14.61879832 1.92578125 14.68359375 C3.20880127 14.72025146 4.49182129 14.75690918 5.8137207 14.79467773 C9 15 9 15 12 16 C12 17.32 12 18.64 12 20 C12.66 20 13.32 20 14 20 C16.05389301 22.95760593 17.16390449 25.53617575 18 29 C18.66 29.66 19.32 30.32 20 31 C19.34 31.66 18.68 32.32 18 33 C16.66141476 30.71125827 15.32898986 28.41930344 14 26.125 C13.6184375 25.47402344 13.236875 24.82304687 12.84375 24.15234375 C10 19.2265625 10 19.2265625 10 17 C8.97527588 16.97494385 7.95055176 16.9498877 6.89477539 16.92407227 C3.10590324 16.83015516 -0.68277881 16.72989683 -4.47143555 16.62768555 C-6.11364303 16.58427703 -7.75589739 16.54260642 -9.39819336 16.50268555 C-11.75388745 16.4451256 -14.10934428 16.38139108 -16.46484375 16.31640625 C-17.20339096 16.29969376 -17.94193817 16.28298126 -18.7028656 16.26576233 C-23.88612829 16.11387171 -23.88612829 16.11387171 -25 15 C-25.0979057 13.50261876 -25.12974864 12.00057108 -25.125 10.5 C-25.12757813 9.6853125 -25.13015625 8.870625 -25.1328125 8.03125 C-25 6 -25 6 -24 5 C-21.1156618 4.91134792 -18.25537842 4.88478704 -15.37109375 4.90234375 C-14.07474754 4.90446617 -14.07474754 4.90446617 -12.75221252 4.90663147 C-9.98060708 4.91224761 -7.2090812 4.92480281 -4.4375 4.9375 C-2.5631522 4.94251292 -0.68880315 4.94707619 1.18554688 4.95117188 C5.79039544 4.96222228 10.39518421 4.9794977 15 5 C14.505 3.515 14.505 3.515 14 2 C7.07 1.505 7.07 1.505 0 1 C0 0.67 0 0.34 0 0 Z " fill="#247073" transform="translate(191,287)"/>
<path d="M0 0 C0.66216019 -0.0049649 1.32432037 -0.00992981 2.00654602 -0.01504517 C4.20579057 -0.02969028 6.40496265 -0.03647775 8.60424805 -0.04199219 C10.1396637 -0.04774807 11.67507935 -0.05350575 13.210495 -0.05926514 C16.43948704 -0.06978612 19.66845415 -0.0756195 22.89746094 -0.07910156 C27.00138303 -0.08454483 31.10496633 -0.10847736 35.20878315 -0.13707352 C38.38759759 -0.15587281 41.56633391 -0.1609149 44.7451992 -0.16243744 C46.25561534 -0.16543305 47.76603115 -0.17335472 49.27639198 -0.18662262 C58.72903994 -0.26363303 67.39316644 0.55172097 76.5534668 3.16113281 C76.5534668 3.49113281 76.5534668 3.82113281 76.5534668 4.16113281 C74.97022992 4.18832581 73.38685618 4.20761587 71.8034668 4.22363281 C70.48088867 4.24103516 70.48088867 4.24103516 69.1315918 4.25878906 C66.5534668 4.16113281 66.5534668 4.16113281 64.82806396 3.66212463 C61.71703473 2.97690431 58.76715337 3.04195961 55.58178711 3.04760742 C54.88869949 3.0474614 54.19561188 3.04731537 53.48152161 3.04716492 C51.19817947 3.04785974 48.91491963 3.05563197 46.6315918 3.06347656 C45.04547164 3.06534227 43.45935092 3.06676545 41.87322998 3.06776428 C37.70410565 3.07157743 33.5350163 3.08139744 29.36590576 3.09246826 C25.1094205 3.10270824 20.85292958 3.10726745 16.59643555 3.11230469 C8.24876326 3.1230208 -0.09888061 3.14008277 -8.4465332 3.16113281 C-8.4465332 2.50113281 -8.4465332 1.84113281 -8.4465332 1.16113281 C-5.60147298 -0.2613973 -3.18106784 0.01810193 0 0 Z " fill="#1E5659" transform="translate(291.446533203125,114.8388671875)"/>
<path d="M0 0 C2.64 0 5.28 0 8 0 C8 1.65 8 3.3 8 5 C-17.74 5 -43.48 5 -70 5 C-70 8.3 -70 11.6 -70 15 C-67.36 15 -64.72 15 -62 15 C-62 15.33 -62 15.66 -62 16 C-63.65 16.33 -65.3 16.66 -67 17 C-67 17.66 -67 18.32 -67 19 C-78.22 19 -89.44 19 -101 19 C-101 18.67 -101 18.34 -101 18 C-86.15 17.505 -86.15 17.505 -71 17 C-71 12.71 -71 8.42 -71 4 C-45.59 3.67 -20.18 3.34 6 3 C6 2.67 6 2.34 6 2 C4.02 1.67 2.04 1.34 0 1 C0 0.67 0 0.34 0 0 Z " fill="#014648" transform="translate(174,250)"/>
<path d="M0 0 C0.495 0.99 0.495 0.99 1 2 C5.62 2 10.24 2 15 2 C15 3.98 15 5.96 15 8 C13.90349121 8.02505615 12.80698242 8.0501123 11.67724609 8.07592773 C-17.67196881 8.73657133 -17.67196881 8.73657133 -47 10 C-47.99 13.465 -47.99 13.465 -49 17 C-49.33 17 -49.66 17 -50 17 C-50 13.7 -50 10.4 -50 7 C-46.41127202 6.10281801 -43.7842789 5.87866607 -40.12988281 5.88647461 C-38.94896057 5.88655014 -37.76803833 5.88662567 -36.55133057 5.88670349 C-35.28142273 5.89186478 -34.01151489 5.89702606 -32.703125 5.90234375 C-31.39921814 5.9037587 -30.09531128 5.90517365 -28.75189209 5.90663147 C-25.29296945 5.91044133 -21.83408909 5.92025849 -18.37518311 5.93133545 C-14.84257581 5.94158254 -11.30996164 5.94613615 -7.77734375 5.95117188 C-0.85154518 5.96188218 6.07422538 5.97894016 13 6 C13.33 5.01 13.66 4.02 14 3 C9.38 3 4.76 3 0 3 C0 2.01 0 1.02 0 0 Z " fill="#2D767A" transform="translate(201,170)"/>
<path d="M0 0 C9.59658565 -0.02315289 19.19316171 -0.04093016 28.78976917 -0.05181217 C33.24567971 -0.05703453 37.70157115 -0.06412049 42.1574707 -0.07543945 C46.4562823 -0.08629125 50.75507553 -0.09228172 55.05389977 -0.09487724 C56.6953733 -0.09672734 58.33684581 -0.10034004 59.97831154 -0.10573006 C62.27438164 -0.11297088 64.57037543 -0.11398965 66.86645508 -0.11352539 C68.8283654 -0.11685631 68.8283654 -0.11685631 70.82991028 -0.12025452 C74 0 74 0 77 1 C79.46552067 4.37867647 80 5.70558202 80 10 C80.99 10.495 80.99 10.495 82 11 C82 11.99 82 12.98 82 14 C78.71534104 11.20803989 76.98678042 7.76803183 75 4 C75 3.34 75 2.68 75 2 C74.1704203 2.00392761 74.1704203 2.00392761 73.32408142 2.00793457 C57.06384092 2.07352391 40.81881012 1.83931361 24.5625 1.5 C22.16211361 1.45161232 19.76172299 1.40343423 17.36132812 1.35546875 C11.57416794 1.23938331 5.78706449 1.12075698 0 1 C0 0.67 0 0.34 0 0 Z " fill="#34797E" transform="translate(104,264)"/>
<path d="M0 0 C30.69 0 61.38 0 93 0 C92.67 1.65 92.34 3.3 92 5 C91.505 3.02 91.505 3.02 91 1 C61.96 1 32.92 1 3 1 C3 1.66 3 2.32 3 3 C1.02 3.99 1.02 3.99 -1 5 C-0.67 3.35 -0.34 1.7 0 0 Z " fill="#49B2B2" transform="translate(330,269)"/>
<path d="M0 0 C31.35 0 62.7 0 95 0 C95.495 0.99 95.495 0.99 96 2 C94.5625 4.625 94.5625 4.625 93 7 C91.875 3.25 91.875 3.25 93 1 C62.31 1 31.62 1 0 1 C0 0.67 0 0.34 0 0 Z " fill="#1C6A6B" transform="translate(330,268)"/>
<path d="M0 0 C0.99 0.33 1.98 0.66 3 1 C-0.44525843 10.14996542 -6.11010769 17.20881904 -14 23 C-14.66 23 -15.32 23 -16 23 C-15.67 21.02 -15.34 19.04 -15 17 C-14.34 17.33 -13.68 17.66 -13 18 C-12.67 17.34 -12.34 16.68 -12 16 C-11.01 16 -10.02 16 -9 16 C-8.67 14.68 -8.34 13.36 -8 12 C-7.34 12 -6.68 12 -6 12 C-6.33 10.02 -6.66 8.04 -7 6 C-5.35 5.34 -3.7 4.68 -2 4 C-2.33 4.99 -2.66 5.98 -3 7 C-2.34 7 -1.68 7 -1 7 C-0.67 4.69 -0.34 2.38 0 0 Z " fill="#38A0A1" transform="translate(385,333)"/>
<path d="M0 0 C0.66 1.32 1.32 2.64 2 4 C20.15 4 38.3 4 57 4 C57 4.66 57 5.32 57 6 C37.53 6.33 18.06 6.66 -2 7 C-2.66 9.64 -3.32 12.28 -4 15 C-5.03159626 11.90521121 -4.97482862 10.47368607 -4.5625 7.3125 C-4.46066406 6.50425781 -4.35882813 5.69601562 -4.25390625 4.86328125 C-4.17011719 4.24839844 -4.08632812 3.63351562 -4 3 C-2.68 3 -1.36 3 0 3 C0 2.01 0 1.02 0 0 Z " fill="#195F61" transform="translate(171,327)"/>
<path d="M0 0 C15.84 0 31.68 0 48 0 C47.67 1.32 47.34 2.64 47 4 C46.505 3.01 46.505 3.01 46 2 C30.82 2 15.64 2 0 2 C0 1.34 0 0.68 0 0 Z " fill="#23595A" transform="translate(342,288)"/>
<path d="M0 0 C1.2065625 0.0309375 1.2065625 0.0309375 2.4375 0.0625 C1.798125 0.784375 1.15875 1.50625 0.5 2.25 C-1.95106338 5.177817 -1.95106338 5.177817 -2.5625 10.0625 C9.9775 10.0625 22.5175 10.0625 35.4375 10.0625 C35.4375 7.0925 35.4375 4.1225 35.4375 1.0625 C34.4475 0.7325 33.4575 0.4025 32.4375 0.0625 C33.7575 0.0625 35.0775 0.0625 36.4375 0.0625 C36.4375 3.6925 36.4375 7.3225 36.4375 11.0625 C23.2375 11.0625 10.0375 11.0625 -3.5625 11.0625 C-3.5625 0.08689024 -3.5625 0.08689024 0 0 Z " fill="#8E9E9E" transform="translate(108.5625,199.9375)"/>
<path d="M0 0 C22.11 0 44.22 0 67 0 C67 0.33 67 0.66 67 1 C45.88 1.33 24.76 1.66 3 2 C2.67 2.66 2.34 3.32 2 4 C2 3.34 2 2.68 2 2 C1.01 2.33 0.02 2.66 -1 3 C-0.67 2.01 -0.34 1.02 0 0 Z " fill="#45B4B8" transform="translate(284,117)"/>
<path d="M0 0 C3.98029726 3.68848661 7.50546456 8.68902492 8.3203125 14.14453125 C8.3125 16.0625 8.3125 16.0625 8 19 C5.36 19 2.72 19 0 19 C0 18.01 0 17.02 0 16 C0.66 16 1.32 16 2 16 C2.77842938 12.59437148 3.09978121 9.49234244 3 6 C2.34 6 1.68 6 1 6 C0.67 4.02 0.34 2.04 0 0 Z " fill="#3CABAC" transform="translate(416,190)"/>
<path d="M0 0 C0.99 0 1.98 0 3 0 C1.90316171 3.09272435 0.5467247 5.86355497 -1.12890625 8.671875 C-1.52400391 9.33703125 -1.91910156 10.0021875 -2.32617188 10.6875 C-3.14455381 12.05276276 -3.97258263 13.41229307 -4.81054688 14.765625 C-8.33972821 20.77274216 -9 26.11625888 -9 33 C-9.66 33 -10.32 33 -11 33 C-11.09688221 27.55306686 -11.12862175 22.36095333 -10 17 C-9.34 17 -8.68 17 -8 17 C-7.731875 15.906875 -7.46375 14.81375 -7.1875 13.6875 C-6.05867424 10.18219895 -5.54626348 9.32484926 -3 7 C-2.28552357 4.89667109 -2.28552357 4.89667109 -2 3 C-1.34 3 -0.68 3 0 3 C0 2.01 0 1.02 0 0 Z " fill="#2A7879" transform="translate(199,211)"/>
<path d="M0 0 C0 0.66 0 1.32 0 2 C-16.17 2 -32.34 2 -49 2 C-48.67 1.34 -48.34 0.68 -48 0 C-46.74864258 0.00523682 -45.49728516 0.01047363 -44.20800781 0.01586914 C-39.56380936 0.03397391 -34.91961403 0.04545209 -30.27539062 0.05493164 C-28.26561966 0.05995931 -26.25585236 0.06678233 -24.24609375 0.07543945 C-21.35676165 0.08757351 -18.46747793 0.09324399 -15.578125 0.09765625 C-14.23104462 0.10539818 -14.23104462 0.10539818 -12.85675049 0.11329651 C-11.5958963 0.11340981 -11.5958963 0.11340981 -10.30957031 0.11352539 C-9.57232727 0.115746 -8.83508423 0.11796661 -8.07550049 0.12025452 C-5.96571835 0.06756454 -5.96571835 0.06756454 -3.85565186 -0.56959534 C-2 -1 -2 -1 0 0 Z " fill="#23666B" transform="translate(392,188)"/>
<path d="M0 0 C0.66 0.99 1.32 1.98 2 3 C1.34 3 0.68 3 0 3 C-0.04125 3.886875 -0.0825 4.77375 -0.125 5.6875 C-1.32495713 10.23019486 -3.29068735 11.21801551 -7 14 C-7.33 14.66 -7.66 15.32 -8 16 C-11.0625 16.625 -11.0625 16.625 -14 17 C-14.99 15.68 -15.98 14.36 -17 13 C-16.67 12.34 -16.34 11.68 -16 11 C-15.34 11.66 -14.68 12.32 -14 13 C-11.0326834 13.05936783 -11.0326834 13.05936783 -8 12 C-5.82146362 9.82097722 -5.82146362 9.82097722 -4.1875 7.0625 C-3.60355469 6.16660156 -3.01960938 5.27070313 -2.41796875 4.34765625 C-1.0117479 2.08984466 -1.0117479 2.08984466 0 0 Z " fill="#308384" transform="translate(369,324)"/>
<path d="M0 0 C0.99 0.33 1.98 0.66 3 1 C1.2010497 6.07634826 -1.49026455 10.63713611 -4.125 15.3125 C-4.59292969 16.14845703 -5.06085938 16.98441406 -5.54296875 17.84570312 C-6.6926259 19.89866233 -7.84503802 21.95002202 -9 24 C-9.33 24 -9.66 24 -10 24 C-10.50130606 18.73628638 -9.31168629 16.0909066 -6 12 C-5.34 12 -4.68 12 -4 12 C-3.67 10.02 -3.34 8.04 -3 6 C-2.34 6 -1.68 6 -1 6 C-0.67 4.02 -0.34 2.04 0 0 Z " fill="#34888A" transform="translate(403,302)"/>
<path d="M0 0 C2.97 0.33 5.94 0.66 9 1 C9 1.33 9 1.66 9 2 C7.35 2.33 5.7 2.66 4 3 C4 3.66 4 4.32 4 5 C-7.22 5 -18.44 5 -30 5 C-30 4.67 -30 4.34 -30 4 C-15.15 3.505 -15.15 3.505 0 3 C0 2.01 0 1.02 0 0 Z " fill="#001215" transform="translate(103,264)"/>
<path d="M0 0 C0.66 0.99 1.32 1.98 2 3 C1.01 3.33 0.02 3.66 -1 4 C-0.938125 5.175625 -0.938125 5.175625 -0.875 6.375 C-1.0362967 11.0526044 -1.99085661 15.44083432 -3 20 C-2.34 20.33 -1.68 20.66 -1 21 C-1.33 22.32 -1.66 23.64 -2 25 C-6.5825839 12.97071726 -6.5825839 12.97071726 -4.1328125 6.82421875 C-1.58109862 1.58109862 -1.58109862 1.58109862 0 0 Z " fill="#2C7D7E" transform="translate(224,110)"/>
<path d="M0 0 C0.99 0 1.98 0 3 0 C1.40376856 4.39383706 -0.78024333 8.28995807 -3.125 12.3125 C-3.49753906 12.95767578 -3.87007813 13.60285156 -4.25390625 14.26757812 C-5.16632213 15.84675945 -6.08275509 17.42361864 -7 19 C-7.33 19 -7.66 19 -8 19 C-8.25 13.375 -8.25 13.375 -6 10 C-5.01 10 -4.02 10 -3 10 C-2.67 7.69 -2.34 5.38 -2 3 C-1.34 3 -0.68 3 0 3 C0 2.01 0 1.02 0 0 Z " fill="#318889" transform="translate(338,291)"/>
<path d="M0 0 C0.99 0 1.98 0 3 0 C1.40376856 4.39383706 -0.78024333 8.28995807 -3.125 12.3125 C-3.49753906 12.95767578 -3.87007812 13.60285156 -4.25390625 14.26757812 C-5.16632213 15.84675945 -6.08275509 17.42361864 -7 19 C-7.66 18.01 -8.32 17.02 -9 16 C-8.34 16 -7.68 16 -7 16 C-6.67 14.02 -6.34 12.04 -6 10 C-5.34 10 -4.68 10 -4 10 C-2.66666667 7 -2.66666667 7 -4 4 C-3.01 3.67 -2.02 3.34 -1 3 C-0.67 2.01 -0.34 1.02 0 0 Z " fill="#2E8183" transform="translate(214,185)"/>
<path d="M0 0 C0.639375 0.33 1.27875 0.66 1.9375 1 C-0.55460439 3.49210439 -2.06610788 3.26015661 -5.47265625 3.2734375 C-6.50712891 3.26183594 -6.50712891 3.26183594 -7.5625 3.25 C-8.25214844 3.25773438 -8.94179688 3.26546875 -9.65234375 3.2734375 C-14.80916707 3.25333293 -14.80916707 3.25333293 -17.0625 1 C-11.61212007 -1.81309932 -5.75899153 -1.88048703 0 0 Z " fill="#2F7F84" transform="translate(322.0625,143)"/>
<path d="M0 0 C1.32 0.33 2.64 0.66 4 1 C1.99746068 5.73327475 -1.3936338 9.3936338 -5 13 C-6 10 -6 10 -4.78515625 7.51953125 C-4.21667969 6.62621094 -3.64820313 5.73289062 -3.0625 4.8125 C-2.49660156 3.91144531 -1.93070312 3.01039062 -1.34765625 2.08203125 C-0.90292969 1.39496094 -0.45820313 0.70789063 0 0 Z " fill="#349597" transform="translate(282,118)"/>
<path d="M0 0 C3.3 0 6.6 0 10 0 C10 0.33 10 0.66 10 1 C7.69 1 5.38 1 3 1 C3 3.31 3 5.62 3 8 C4.65 8 6.3 8 8 8 C8 8.33 8 8.66 8 9 C5.36 9 2.72 9 0 9 C0 6.03 0 3.06 0 0 Z " fill="#368888" transform="translate(166,293)"/>
<path d="M0 0 C2.2477975 2.05233685 3.0022242 3.00667261 4 6 C1.30229742 7.34885129 -0.65273375 7.01578483 -3.6640625 6.87890625 C-4.78554688 6.83056641 -5.90703125 6.78222656 -7.0625 6.73242188 C-8.8259375 6.64831055 -8.8259375 6.64831055 -10.625 6.5625 C-12.40003906 6.48418945 -12.40003906 6.48418945 -14.2109375 6.40429688 C-17.14087561 6.27433994 -20.07049673 6.13936472 -23 6 C-23 5.67 -23 5.34 -23 5 C-15.41 5 -7.82 5 0 5 C0 3.35 0 1.7 0 0 Z " fill="#348E92" transform="translate(424,204)"/>
<path d="M0 0 C2.63520741 2.40502363 4.40302943 5.0185849 6.25 8.0625 C7.06210938 9.37927734 7.06210938 9.37927734 7.890625 10.72265625 C8.25671875 11.47417969 8.6228125 12.22570312 9 13 C8.67 13.66 8.34 14.32 8 15 C2.125 11.375 2.125 11.375 1 8 C1.4375 5.8125 1.4375 5.8125 2 4 C1.34 4 0.68 4 0 4 C0 2.68 0 1.36 0 0 Z " fill="#2E8687" transform="translate(210,279)"/>
<path d="M0 0 C0.66 0 1.32 0 2 0 C2.25 2.25 2.25 2.25 2 5 C0.125 7.3125 0.125 7.3125 -2 9 C-2.66 9 -3.32 9 -4 9 C-4 10.65 -4 12.3 -4 14 C-4.99 14 -5.98 14 -7 14 C-5.58163643 8.8423143 -3.32608425 4.20024742 0 0 Z " fill="#348E8E" transform="translate(268,142)"/>
<path d="M0 0 C1.3609623 2.7219246 0.70366248 4.1831957 0.0625 7.125 C-0.13214844 8.03507812 -0.32679688 8.94515625 -0.52734375 9.8828125 C-0.68332031 10.58148438 -0.83929688 11.28015625 -1 12 C-2.98 12.66 -4.96 13.32 -7 14 C-5.23570801 9.02790438 -2.6060834 4.56561939 0 0 Z " fill="#2B7B7C" transform="translate(311,300)"/>
<path d="M0 0 C2.29017186 2.14913488 4.01315589 4.34518412 5.6875 7 C6.34298828 8.0209375 6.34298828 8.0209375 7.01171875 9.0625 C8 11 8 11 8 14 C6.68 14 5.36 14 4 14 C4 12.02 4 10.04 4 8 C3.34 8 2.68 8 2 8 C0.23537317 4.91190305 0 3.76687864 0 0 Z " fill="#338486" transform="translate(384,135)"/>
<path d="M0 0 C2 2 2 2 2 5 C5.63 5 9.26 5 13 5 C13 5.33 13 5.66 13 6 C6.34249119 7.11181737 1.95966724 7.35231282 -4 4 C-4.66 3.34 -5.32 2.68 -6 2 C-4.02 2 -2.04 2 0 2 C0 1.34 0 0.68 0 0 Z " fill="#318787" transform="translate(331,362)"/>
<path d="M0 0 C2.78517171 2.78517171 2.98534581 4.58968282 3.125 8.5 C3 12 3 12 2 15 C1.34 15 0.68 15 0 15 C0 10.05 0 5.1 0 0 Z " fill="#2E7274" transform="translate(285,302)"/>
<path d="M0 0 C2.48982535 2.27745789 4.10368997 4.62335238 5.75 7.5625 C6.19859375 8.34753906 6.6471875 9.13257813 7.109375 9.94140625 C7.40328125 10.62074219 7.6971875 11.30007813 8 12 C7.67 12.66 7.34 13.32 7 14 C6.34 13.67 5.68 13.34 5 13 C5 12.34 5 11.68 5 11 C4.34 11 3.68 11 3 11 C0 4.5 0 4.5 0 0 Z " fill="#308486" transform="translate(202,265)"/>
<path d="M0 0 C2.48982535 2.27745789 4.10368997 4.62335238 5.75 7.5625 C6.19859375 8.34753906 6.6471875 9.13257813 7.109375 9.94140625 C7.40328125 10.62074219 7.6971875 11.30007813 8 12 C7.67 12.66 7.34 13.32 7 14 C6.34 14 5.68 14 5 14 C5 13.34 5 12.68 5 12 C4.319375 11.38125 3.63875 10.7625 2.9375 10.125 C2.298125 9.42375 1.65875 8.7225 1 8 C1.25 5.75 1.25 5.75 2 4 C1.34 4 0.68 4 0 4 C0 2.68 0 1.36 0 0 Z " fill="#2D8182" transform="translate(248,256)"/>
<path d="M0 0 C0.99 0 1.98 0 3 0 C1.23570801 4.97209562 -1.3939166 9.43438061 -4 14 C-4.33 14 -4.66 14 -5 14 C-5.3669579 7.51707705 -5.3669579 7.51707705 -3.625 5.0625 C-2 4 -2 4 0 4 C0 2.68 0 1.36 0 0 Z " fill="#2E8685" transform="translate(233,152)"/>
<path d="M0 0 C3.20609302 3.00398974 4.95593298 6.12332117 7 10 C7 10.66 7 11.32 7 12 C2.125 10.125 2.125 10.125 1 9 C0.76807135 7.48530552 0.58784762 5.96245438 0.4375 4.4375 C0.35371094 3.61121094 0.26992187 2.78492188 0.18359375 1.93359375 C0.12300781 1.29550781 0.06242188 0.65742188 0 0 Z " fill="#308C8B" transform="translate(233,319)"/>
<path d="M0 0 C0.99 0 1.98 0 3 0 C1.23570801 4.97209562 -1.3939166 9.43438061 -4 14 C-4.66 12.68 -5.32 11.36 -6 10 C-5.2884375 9.38125 -5.2884375 9.38125 -4.5625 8.75 C-2.83733482 6.817815 -2.43415125 5.51807725 -2 3 C-1.34 3 -0.68 3 0 3 C0 2.01 0 1.02 0 0 Z " fill="#2F888D" transform="translate(199,211)"/>
<path d="M0 0 C0.99 0.33 1.98 0.66 3 1 C3 2.32 3 3.64 3 5 C3.99 5.33 4.98 5.66 6 6 C6 7.65 6 9.3 6 11 C4.21848725 9.38044295 3.09077496 8.2269374 2.1875 5.96875 C1.15842311 3.80626651 1.15842311 3.80626651 -1.1640625 3.171875 C-2.38222656 2.96304688 -2.38222656 2.96304688 -3.625 2.75 C-4.44226563 2.60046875 -5.25953125 2.4509375 -6.1015625 2.296875 C-7.04128906 2.14992187 -7.04128906 2.14992187 -8 2 C-4.90279155 1.12159004 -3.09354597 1.00564594 0 2 C0 1.34 0 0.68 0 0 Z " fill="#256F72" transform="translate(315,180)"/>
<path d="M0 0 C1 2 1 2 0.36328125 4.3125 C0.01652344 5.199375 -0.33023437 6.08625 -0.6875 7 C-1.02136719 7.886875 -1.35523438 8.77375 -1.69921875 9.6875 C-3.17189511 12.3055913 -4.22805571 12.97292169 -7 14 C-5.53967505 8.68972746 -3.01679014 4.53669968 0 0 Z " fill="#308485" transform="translate(387,293)"/>
<path d="M0 0 C0.99 0.33 1.98 0.66 3 1 C3 1.99 3 2.98 3 4 C3.66 4 4.32 4 5 4 C7.5393228 7.41831915 8.3636198 9.75776898 8 14 C0 4.57142857 0 4.57142857 0 0 Z " fill="#2F8182" transform="translate(237,278)"/>
<path d="M0 0 C3.3 0.33 6.6 0.66 10 1 C6.85426323 3.09715785 4.98543749 3.52004559 1.3125 4.125 C0.31863281 4.29257812 -0.67523438 4.46015625 -1.69921875 4.6328125 C-2.45847656 4.75398438 -3.21773438 4.87515625 -4 5 C-4.33 4.01 -4.66 3.02 -5 2 C-3.35 1.67 -1.7 1.34 0 1 C0 0.67 0 0.34 0 0 Z " fill="#308788" transform="translate(357,356)"/>
<path d="M0 0 C1.00289063 0.10183594 2.00578125 0.20367187 3.0390625 0.30859375 C3.80992187 0.39238281 4.58078125 0.47617187 5.375 0.5625 C5.705 1.8825 6.035 3.2025 6.375 4.5625 C5.55 4.2325 4.725 3.9025 3.875 3.5625 C-0.2123983 2.39467191 -3.39423344 2.4166115 -7.625 2.5625 C-7.625 1.9025 -7.625 1.2425 -7.625 0.5625 C-4.89657939 -0.80171031 -3.01546682 -0.31557211 0 0 Z " fill="#37B9BA" transform="translate(339.625,331.4375)"/>
<path d="M0 0 C1 2 1 2 0.22265625 4.6015625 C-0.16019531 5.59929687 -0.54304688 6.59703125 -0.9375 7.625 C-1.31777344 8.62789063 -1.69804687 9.63078125 -2.08984375 10.6640625 C-2.39019531 11.43492187 -2.69054687 12.20578125 -3 13 C-3.99 12.67 -4.98 12.34 -6 12 C-4.43358249 7.69235185 -2.31663844 3.93828536 0 0 Z " fill="#2B8585" transform="translate(318,288)"/>
<path d="M0 0 C0.33 0 0.66 0 1 0 C1.06058594 0.74765625 1.12117188 1.4953125 1.18359375 2.265625 C1.26738281 3.25046875 1.35117187 4.2353125 1.4375 5.25 C1.51871094 6.22453125 1.59992188 7.1990625 1.68359375 8.203125 C1.91072733 10.9359548 1.91072733 10.9359548 2.66015625 13.234375 C2.77230469 13.81703125 2.88445312 14.3996875 3 15 C2.34 15.66 1.68 16.32 1 17 C-1.29811043 11.25472393 -1.98807394 5.96422183 0 0 Z " fill="#256668" transform="translate(295,155)"/>
<path d="M0 0 C0.99 0.33 1.98 0.66 3 1 C1.63312778 4.98671063 -0.15195093 7.88494633 -3 11 C-3.66 11 -4.32 11 -5 11 C-5 10.01 -5 9.02 -5 8 C-4.34 8 -3.68 8 -3 8 C-1.92474806 5.34771188 -0.90543849 2.71631546 0 0 Z " fill="#358E8E" transform="translate(309,340)"/>
<path d="M0 0 C0.66 0 1.32 0 2 0 C0.43358249 4.30764815 -1.68336156 8.06171464 -4 12 C-4.33 12 -4.66 12 -5 12 C-5 10.35 -5 8.7 -5 7 C-4.34 7 -3.68 7 -3 7 C-2.87625 6.21625 -2.7525 5.4325 -2.625 4.625 C-2 2 -2 2 0 0 Z " fill="#2F7E7E" transform="translate(319,326)"/>
<path d="M0 0 C0.66 0 1.32 0 2 0 C2.4125 0.45375 2.825 0.9075 3.25 1.375 C5.02164415 3.2507979 5.02164415 3.2507979 8.125 4 C9.07375 4.33 10.0225 4.66 11 5 C11.33 5.99 11.66 6.98 12 8 C7.48349806 7.46864683 4.57941844 5.76591425 1 3 C0.67 2.01 0.34 1.02 0 0 Z " fill="#318486" transform="translate(251,322)"/>
<path d="M0 0 C5.01113235 1.4317521 6.94469549 3.98445693 10 8 C9.67 8.66 9.34 9.32 9 10 C5.125 7.125 5.125 7.125 4 6 C3.34 6 2.68 6 2 6 C1.34 4.02 0.68 2.04 0 0 Z " fill="#2A7A7B" transform="translate(248,106)"/>
<path d="M0 0 C0.33 0 0.66 0 1 0 C1.33 5.28 1.66 10.56 2 16 C-1.3869401 11.48407987 -1.3869401 11.48407987 -1.25 7.4375 C-1.23453125 6.67308594 -1.2190625 5.90867187 -1.203125 5.12109375 C-1 3 -1 3 0 0 Z " fill="#267575" transform="translate(248,304)"/>
<path d="M0 0 C0.99 0.33 1.98 0.66 3 1 C4.1875 4.5625 4.1875 4.5625 5 8 C5.66 8 6.32 8 7 8 C7.33 9.98 7.66 11.96 8 14 C5.50447597 11.72402354 3.93377014 9.39278822 2.3125 6.4375 C1.87550781 5.65246094 1.43851563 4.86742187 0.98828125 4.05859375 C0 2 0 2 0 0 Z " fill="#2C7F7F" transform="translate(229,264)"/>
<path d="M0 0 C0.99 0 1.98 0 3 0 C1.66511872 3.59391114 0.03977277 6.75490696 -2 10 C-2.66 8.68 -3.32 7.36 -4 6 C-3.34 5.67 -2.68 5.34 -2 5 C-2 4.01 -2 3.02 -2 2 C-1.34 2 -0.68 2 0 2 C0 1.34 0 0.68 0 0 Z " fill="#2D8787" transform="translate(225,166)"/>
<path d="M0 0 C1.14662109 -0.00773437 1.14662109 -0.00773437 2.31640625 -0.015625 C4.4375 0.25 4.4375 0.25 7.4375 2.25 C3.64482808 3.1860342 0.50075435 3.23276252 -3.375 2.8125 C-4.35082031 2.71066406 -5.32664062 2.60882813 -6.33203125 2.50390625 C-7.43611328 2.37822266 -7.43611328 2.37822266 -8.5625 2.25 C-5.58784237 0.54245166 -3.42389168 -0.02317355 0 0 Z " fill="#2C777C" transform="translate(337.5625,327.75)"/>
<path d="M0 0 C0.66 0 1.32 0 2 0 C1.42365861 4.75481646 -0.55068521 7.97048212 -3 12 C-3.33 12 -3.66 12 -4 12 C-4.50130606 6.73628638 -3.31168629 4.0909066 0 0 Z " fill="#308183" transform="translate(397,314)"/>
<path d="M0 0 C0.75 1.5625 0.75 1.5625 1 4 C-0.02332869 6.54719859 -1.27272296 8.86333587 -3 11 C-3.99 11.33 -4.98 11.66 -6 12 C-4.43358249 7.69235185 -2.31663844 3.93828536 0 0 Z " fill="#308686" transform="translate(379,307)"/>
<path d="M0 0 C2.0245738 1.93254772 3.42105792 3.63158688 5 6 C7.56282742 6.72965366 7.56282742 6.72965366 10 7 C10 7.33 10 7.66 10 8 C3.9453125 8.1953125 3.9453125 8.1953125 2 8 C0 6 0 6 -0.125 2.875 C-0.08375 1.92625 -0.0425 0.9775 0 0 Z " fill="#328485" transform="translate(264,284)"/>
<path d="M0 0 C0.66 0 1.32 0 2 0 C4.43160605 3.36683915 5 4.73350364 5 9 C5.66 9.33 6.32 9.66 7 10 C7 10.99 7 11.98 7 13 C3.70759125 10.20145256 1.96437054 6.79326725 0 3 C0 2.01 0 1.02 0 0 Z " fill="#348A8B" transform="translate(179,265)"/>
<path d="M0 0 C0.66 0.33 1.32 0.66 2 1 C1.42655063 3.86724686 1.1385485 4.8614515 -1 7 C-3.625 7.625 -3.625 7.625 -6 8 C-4.55746343 4.63408134 -2.66735273 2.48952921 0 0 Z " fill="#30888A" transform="translate(303,145)"/>
<path d="M0 0 C0.33 0.66 0.66 1.32 1 2 C0 4 0 4 -2 6 C-4.75372909 6.36933645 -7.20365661 6.18336678 -10 6 C-10 5.34 -10 4.68 -10 4 C-7.98177083 3.54427083 -5.96354167 3.08854167 -3.9453125 2.6328125 C-1.79280036 2.09525572 -1.79280036 2.09525572 0 0 Z " fill="#328183" transform="translate(291,334)"/>
<path d="M0 0 C1.2065625 0.0309375 1.2065625 0.0309375 2.4375 0.0625 C1.798125 0.76375 1.15875 1.465 0.5 2.1875 C-1.72636102 5.29091233 -2.21330943 7.30870139 -2.5625 11.0625 C-2.8925 11.0625 -3.2225 11.0625 -3.5625 11.0625 C-3.58938151 9.41675434 -3.60884123 7.77088587 -3.625 6.125 C-3.63660156 5.20847656 -3.64820312 4.29195312 -3.66015625 3.34765625 C-3.52086326 0.08820018 -3.27895972 0.07997463 0 0 Z " fill="#8C9899" transform="translate(108.5625,199.9375)"/>
<path d="M0 0 C1.875 0.25 1.875 0.25 4 1 C6.11103658 3.95545121 6.19785783 6.43855901 6 10 C3.38275905 7.63202009 1.67138271 5.10399646 0 2 C0 1.34 0 0.68 0 0 Z " fill="#328688" transform="translate(369,150)"/>
<path d="M0 0 C0.99 0 1.98 0 3 0 C1.90931332 3.77545388 1.0916909 6.47043472 -2 9 C-2.25 3.375 -2.25 3.375 0 0 Z " fill="#378E90" transform="translate(332,301)"/>
<path d="M0 0 C1.42944945 2.35438733 2.08661261 3.48032433 1.625 6.25 C1.41875 6.8275 1.2125 7.405 1 8 C-0.65 8.33 -2.3 8.66 -4 9 C-2.80100302 5.9168649 -1.52299523 2.93720508 0 0 Z " fill="#339292" transform="translate(187,194)"/>
<path d="M0 0 C0 1.98 0 3.96 0 6 C-1.65 6.66 -3.3 7.32 -5 8 C-4.74438677 5.6568787 -4.40729228 3.32156597 -4 1 C-2 0 -2 0 0 0 Z " fill="#2F8486" transform="translate(193,186)"/>
<path d="M0 0 C0.33 0.66 0.66 1.32 1 2 C1.66 2 2.32 2 3 2 C1.7508258 5.45925163 0.32472205 8.14693203 -2 11 C-2.24042276 6.91281305 -1.42258812 3.82320557 0 0 Z " fill="#308B8D" transform="translate(287,145)"/>
<path d="M0 0 C0.99 0 1.98 0 3 0 C1.125 4.75 1.125 4.75 0 7 C-0.99 7 -1.98 7 -3 7 C-3.33 6.01 -3.66 5.02 -4 4 C-3.01 3.67 -2.02 3.34 -1 3 C-0.67 2.01 -0.34 1.02 0 0 Z " fill="#348F91" transform="translate(214,185)"/>
<path d="M0 0 C2.61500768 2.36595933 4.38999603 4.86049226 6 8 C5.67 8.66 5.34 9.32 5 10 C0.07692308 5.69230769 0.07692308 5.69230769 -0.3125 2.1875 C-0.209375 1.465625 -0.10625 0.74375 0 0 Z " fill="#267B7B" transform="translate(225,305)"/>
<path d="M0 0 C0.66 0 1.32 0 2 0 C1.01 3.96 0.02 7.92 -1 12 C-1.33 12 -1.66 12 -2 12 C-2.05395478 10.37536158 -2.09277195 8.75021459 -2.125 7.125 C-2.14820313 6.22007812 -2.17140625 5.31515625 -2.1953125 4.3828125 C-2 2 -2 2 0 0 Z " fill="#297B7D" transform="translate(241,228)"/>
<path d="M0 0 C-0.33 1.65 -0.66 3.3 -1 5 C-1.99 5 -2.98 5 -4 5 C-4 4.01 -4 3.02 -4 2 C-4.99 1.67 -5.98 1.34 -7 1 C-4.53721199 -0.231394 -2.7204945 -0.07159196 0 0 Z " fill="#43B5BA" transform="translate(240,105)"/>
<path d="M0 0 C2.97 0.495 2.97 0.495 6 1 C5.34 2.98 4.68 4.96 4 7 C0 2.25 0 2.25 0 0 Z " fill="#348D8D" transform="translate(210,320)"/>
<path d="M0 0 C0.99 0 1.98 0 3 0 C1.6302836 3.99500618 -0.25722422 6.80009492 -3 10 C-3 8.68 -3 7.36 -3 6 C-2.34 6 -1.68 6 -1 6 C-0.67 4.02 -0.34 2.04 0 0 Z " fill="#2C807E" transform="translate(325,314)"/>
<path d="M0 0 C0 4.24645065 -1.81750806 6.38524772 -4 10 C-4.6875 8.3125 -4.6875 8.3125 -5 6 C-2.73846154 1.36923077 -2.73846154 1.36923077 0 0 Z " fill="#2D7C7E" transform="translate(263,192)"/>
<path d="M0 0 C3.34373475 0.55728913 6.03312999 1.35173889 9 3 C9 3.66 9 4.32 9 5 C4.68607774 4.5206753 2.83430453 3.2542015 0 0 Z " fill="#328384" transform="translate(231,352)"/>
<path d="M0 0 C0.7425 0.45375 1.485 0.9075 2.25 1.375 C4.46930578 2.68640796 6.67967822 3.88280803 9 5 C6.69 5.33 4.38 5.66 2 6 C1.34 4.02 0.68 2.04 0 0 Z " fill="#29767C" transform="translate(242,334)"/>
<path d="M0 0 C3.0916909 2.52956528 3.90931332 5.22454612 5 9 C4.34 9.66 3.68 10.32 3 11 C3 9.35 3 7.7 3 6 C2.34 6 1.68 6 1 6 C0.67 4.02 0.34 2.04 0 0 Z " fill="#2A7979" transform="translate(416,190)"/>
<path d="M0 0 C3.35661695 1.67830848 4.32506861 4.70789347 6 8 C5.67 8.66 5.34 9.32 5 10 C4.01 9.67 3.02 9.34 2 9 C1.26953125 6.93359375 1.26953125 6.93359375 0.8125 4.4375 C0.65394531 3.61121094 0.49539063 2.78492188 0.33203125 1.93359375 C0.16767578 0.97646484 0.16767578 0.97646484 0 0 Z " fill="#28757A" transform="translate(394,152)"/>
<path d="M0 0 C0.99 0.66 1.98 1.32 3 2 C1.515 4.475 1.515 4.475 0 7 C-0.66 6.67 -1.32 6.34 -2 6 C-2 4.35 -2 2.7 -2 1 C-1.34 0.67 -0.68 0.34 0 0 Z " fill="#358B8D" transform="translate(292,138)"/>
<path d="M0 0 C1.39864092 3.17872935 0.89282517 4.30111022 -0.3125 7.6875 C-2 11 -2 11 -4 12 C-2.66666667 8 -1.33333333 4 0 0 Z " fill="#45AFB0" transform="translate(390,288)"/>
<path d="M0 0 C-0.33 0.99 -0.66 1.98 -1 3 C-3.31 3.33 -5.62 3.66 -8 4 C-4.5 0 -4.5 0 0 0 Z " fill="#318C8C" transform="translate(233,106)"/>
<path d="M0 0 C1.32 0 2.64 0 4 0 C4 0.99 4 1.98 4 3 C2.02 3.66 0.04 4.32 -2 5 C-1.34 3.35 -0.68 1.7 0 0 Z " fill="#329897" transform="translate(306,309)"/>
<path d="M0 0 C4.42857143 5.14285714 4.42857143 5.14285714 5 9 C2 8 2 8 0 5 C-0.125 2.3125 -0.125 2.3125 0 0 Z " fill="#2A7C7D" transform="translate(243,247)"/>
<path d="M0 0 C3.0916909 2.52956528 3.90931332 5.22454612 5 9 C2 8 2 8 0.8125 6.1875 C0 4 0 4 0 0 Z " fill="#2C7576" transform="translate(190,244)"/>
<path d="M0 0 C2.2477975 2.05233685 3.0022242 3.00667261 4 6 C3.01 6.495 3.01 6.495 2 7 C-0.125 6.0625 -0.125 6.0625 -2 5 C-1.34 5 -0.68 5 0 5 C0 3.35 0 1.7 0 0 Z " fill="#2E7474" transform="translate(424,204)"/>
<path d="M0 0 C1.32 0.33 2.64 0.66 4 1 C4.33 2.65 4.66 4.3 5 6 C4.01 6 3.02 6 2 6 C1.34 4.02 0.68 2.04 0 0 Z " fill="#32898C" transform="translate(386,179)"/>
<path d="M0 0 C0.99 0.33 1.98 0.66 3 1 C2 3 1 5 0 7 C-0.66 6.67 -1.32 6.34 -2 6 C-1.125 1.125 -1.125 1.125 0 0 Z " fill="#359192" transform="translate(254,132)"/>
<path d="M0 0 C1.98 0.495 1.98 0.495 4 1 C4 1.99 4 2.98 4 4 C2.35 4.66 0.7 5.32 -1 6 C-0.67 4.02 -0.34 2.04 0 0 Z " fill="#379496" transform="translate(370,350)"/>
<path d="M0 0 C0.99 0.33 1.98 0.66 3 1 C1.92598892 3.91517292 1.22189824 5.77810176 -1 8 C-0.67 5.36 -0.34 2.72 0 0 Z " fill="#348C8E" transform="translate(385,333)"/>
<path d="M0 0 C0.99 0.33 1.98 0.66 3 1 C2.39816251 3.02045442 1.72693904 5.02111039 1 7 C0.01 7.495 0.01 7.495 -1 8 C-0.67 5.36 -0.34 2.72 0 0 Z " fill="#2F8687" transform="translate(412,286)"/>
<path d="M0 0 C0.66 0 1.32 0 2 0 C1.50168276 3.68754757 0.89932357 5.60490662 -2 8 C-2.33 6.68 -2.66 5.36 -3 4 C-2.01 4 -1.02 4 0 4 C0 2.68 0 1.36 0 0 Z " fill="#2F7D7E" transform="translate(252,208)"/>
<path d="M0 0 C0 0.66 0 1.32 0 2 C-3.3 2 -6.6 2 -10 2 C-3 -1.5 -3 -1.5 0 0 Z " fill="#155053" transform="translate(392,188)"/>
<path d="M0 0 C0.66 0.33 1.32 0.66 2 1 C1.39816251 3.02045442 0.72693904 5.02111039 0 7 C-0.99 7.495 -0.99 7.495 -2 8 C-2.33 7.01 -2.66 6.02 -3 5 C-1.5625 2.3125 -1.5625 2.3125 0 0 Z " fill="#2F8787" transform="translate(220,175)"/>
<path d="M0 0 C0.66 1.32 1.32 2.64 2 4 C0.625 5.5 0.625 5.5 -1 7 C-1.66 7 -2.32 7 -3 7 C-1.125 2.25 -1.125 2.25 0 0 Z " fill="#33908E" transform="translate(256,163)"/>
</svg>
