<?xml version="1.0" encoding="UTF-8"?>
<svg version="1.1" xmlns="http://www.w3.org/2000/svg" width="500" height="500">
<path d="M0 0 C1.875 1.75 1.875 1.75 3 4 C3 6.5 3 6.5 2 9 C1.25878906 9.54011719 0.51757812 10.08023438 -0.24609375 10.63671875 C-3.84858483 13.72821818 -5.76503011 17.20404148 -8.0625 21.3125 C-8.48337891 22.04662109 -8.90425781 22.78074219 -9.33789062 23.53710938 C-10.16904 24.98936572 -10.99437537 26.44496706 -11.81347656 27.90405273 C-12.59205291 29.27937742 -13.3852864 30.64652822 -14.19433594 32.00415039 C-16.40431191 35.65987458 -16.40431191 35.65987458 -17.125 39.8125 C-15.7695036 43.65307312 -13.8521035 46.83010116 -11.6875 50.26953125 C-9.41772941 53.94214617 -7.41316407 57.73986074 -5.39453125 61.5546875 C-2.85280726 66.34576409 -2.85280726 66.34576409 1.6875 68.75 C2.450625 68.8325 3.21375 68.915 4 69 C4 68.34 4 67.68 4 67 C3.071875 66.814375 3.071875 66.814375 2.125 66.625 C0 66 0 66 -2 64 C-2.421875 62.22265625 -2.421875 62.22265625 -2.75 60.0625 C-3.75537589 54.99475163 -6.00035968 51.06542106 -8.66015625 46.67578125 C-10.20618947 43.58822219 -10.87881292 41.46248808 -11 38 C-10.01651357 35.36260247 -9.01704711 33.13589428 -7.6875 30.6875 C-7.15358643 29.66438721 -7.15358643 29.66438721 -6.60888672 28.62060547 C4.63496923 7.36503077 4.63496923 7.36503077 9 3 C12.36114412 2.39731486 15.77960545 2.346489 19.1875 2.1875 C20.58838867 2.09178711 20.58838867 2.09178711 22.01757812 1.99414062 C27.885037 1.70097414 31.90246418 1.97515981 37 5 C41.14557736 9.1533698 43.84214306 14.62355492 46.75 19.6875 C47.25660156 20.55439453 47.76320313 21.42128906 48.28515625 22.31445312 C48.76339844 23.14267578 49.24164063 23.97089844 49.734375 24.82421875 C50.16975586 25.57791748 50.60513672 26.33161621 51.05371094 27.1081543 C52 29 52 29 52 31 C48.33933205 31.45153614 44.67924564 31.74229422 41 32 C40.27167969 32.05816895 39.54335937 32.11633789 38.79296875 32.17626953 C24.51213409 33.21536011 24.51213409 33.21536011 20.91015625 30.3203125 C19.6875 28.1875 19.6875 28.1875 18.80859375 25.9765625 C17.64175716 23.12429529 15.70470005 22.27721947 13 21 C12 20 12 20 11.75 17.125 C12 14 12 14 13.5 12.125 C13.995 11.75375 14.49 11.3825 15 11 C14.34 11 13.68 11 13 11 C10.82378432 14.58036115 8.67024417 18.1731263 6.53637695 21.77880859 C5.80803633 23.00247262 5.07371369 24.22259724 4.33325195 25.43896484 C3.26726529 27.19243046 2.22374253 28.95767829 1.18359375 30.7265625 C0.54993896 31.78439941 -0.08371582 32.84223633 -0.73657227 33.93212891 C-2.21962984 37.53330793 -2.05094276 39.29554859 -1 43 C0.41470586 45.86049291 0.41470586 45.86049291 2.25 48.5625 C2.87390625 49.51640625 3.4978125 50.4703125 4.140625 51.453125 C5.66672965 53.54350363 7.06087262 55.134828 9 56.8125 C11 59 11 59 10.9375 62.1875 C10 65 10 65 8 67 C8.99 67 9.98 67 11 67 C12.42038515 65.22802669 12.42038515 65.22802669 13.62890625 62.87890625 C14.10650391 62.02619141 14.58410156 61.17347656 15.07617188 60.29492188 C15.56666016 59.39322266 16.05714844 58.49152344 16.5625 57.5625 C17.5382554 55.79036535 18.51850466 54.02069529 19.50390625 52.25390625 C19.93517822 51.46314697 20.3664502 50.6723877 20.81079102 49.85766602 C22 48 22 48 24 47 C25.93557678 46.90300154 27.87449537 46.86923799 29.8125 46.8671875 C30.97007812 46.86589844 32.12765625 46.86460937 33.3203125 46.86328125 C34.53460938 46.86714844 35.74890625 46.87101562 37 46.875 C38.82144531 46.86919922 38.82144531 46.86919922 40.6796875 46.86328125 C42.41605469 46.86521484 42.41605469 46.86521484 44.1875 46.8671875 C45.25355469 46.86831543 46.31960937 46.86944336 47.41796875 46.87060547 C50 47 50 47 52 48 C49.97006912 53.29751015 47.31911496 58.08790575 44.5 63 C44.02046875 63.88945312 43.5409375 64.77890625 43.046875 65.6953125 C39.23811578 72.27229362 35.20693176 75.51564433 28 78 C24.5625 78.5 24.5625 78.5 22 78 C19.67881276 76.25910957 18.63705547 74.45558321 17 72 C16.5875 72.474375 16.175 72.94875 15.75 73.4375 C11.92203417 76.85532663 6.6465033 76.26050404 1.7734375 76.234375 C-2.04011813 75.91210269 -4.64218226 74.79083613 -8 73 C-8 72.34 -8 71.68 -8 71 C-13.61 71 -19.22 71 -25 71 C-25.33 69.68 -25.66 68.36 -26 67 C-29.63 67 -33.26 67 -37 67 C-37 65.68 -37 64.36 -37 63 C-32.38 63 -27.76 63 -23 63 C-22.505 63.99 -22.505 63.99 -22 65 C-19.64400765 65.46751788 -19.64400765 65.46751788 -16.9375 65.625 C-16.01839844 65.69976562 -15.09929687 65.77453125 -14.15234375 65.8515625 C-13.08693359 65.92503906 -13.08693359 65.92503906 -12 66 C-13.56521704 62.64388419 -13.56521704 62.64388419 -16 60 C-19.33169821 59.1696865 -22.57464103 59.01307389 -26 59 C-26 57.35 -26 55.7 -26 54 C-29.96 54 -33.92 54 -38 54 C-37.67 52.68 -37.34 51.36 -37 50 C-35.39592672 49.97291433 -33.7917215 49.95356517 -32.1875 49.9375 C-31.29417969 49.92589844 -30.40085937 49.91429687 -29.48046875 49.90234375 C-27 50 -27 50 -24 51 C-23.67 51.99 -23.34 52.98 -23 54 C-21.68 54 -20.36 54 -19 54 C-19.73230075 51.35099096 -19.73230075 51.35099096 -22 49 C-25.54239854 48.19068797 -29.0651606 48.20901885 -32.6875 48.1875 C-33.67556641 48.16236328 -34.66363281 48.13722656 -35.68164062 48.11132812 C-38.12149336 48.05239448 -40.55954995 48.01616192 -43 48 C-43 49.32 -43 50.64 -43 52 C-46.3 52 -49.6 52 -53 52 C-53 50.68 -53 49.36 -53 48 C-49.98968256 47.06576355 -49.13349732 46.95550089 -46 48 C-45.855625 47.360625 -45.71125 46.72125 -45.5625 46.0625 C-45 44 -45 44 -44 43 C-42.65984779 42.84417697 -41.31241097 42.74955858 -39.96484375 42.68359375 C-39.15595703 42.64169922 -38.34707031 42.59980469 -37.51367188 42.55664062 C-36.66353516 42.51732422 -35.81339844 42.47800781 -34.9375 42.4375 C-34.08349609 42.39431641 -33.22949219 42.35113281 -32.34960938 42.30664062 C-30.23327963 42.20023298 -28.11666187 42.09958269 -26 42 C-26.495 39.525 -26.495 39.525 -27 37 C-28.485 36.505 -28.485 36.505 -30 36 C-30 34.35 -30 32.7 -30 31 C-30.99 31.495 -30.99 31.495 -32 32 C-34.04055005 32.07065617 -36.08334257 32.08421976 -38.125 32.0625 C-39.22070312 32.05347656 -40.31640625 32.04445312 -41.4453125 32.03515625 C-42.28835937 32.02355469 -43.13140625 32.01195312 -44 32 C-44 30.68 -44 29.36 -44 28 C-37.30386804 27.202163 -30.74233419 26.87089147 -24 27 C-24 28.65 -24 30.3 -24 32 C-22.68 29.69 -21.36 27.38 -20 25 C-20.68707031 25 -21.37414062 25 -22.08203125 25 C-26.38802083 25 -30.69401042 25 -35 25 C-35.33 23.68 -35.66 22.36 -36 21 C-34.68 21 -33.36 21 -32 21 C-32 20.34 -32 19.68 -32 19 C-34.64 19 -37.28 19 -40 19 C-40 18.01 -40 17.02 -40 16 C-36.04 16 -32.08 16 -28 16 C-28 16.99 -28 17.98 -28 19 C-24.26888555 19.87790928 -20.83204782 20.34062647 -17 20 C-16.34 19.01 -15.68 18.02 -15 17 C-17.97 17 -20.94 17 -24 17 C-24 15.68 -24 14.36 -24 13 C-18.06 12.505 -18.06 12.505 -12 12 C-11.38125 9.339375 -11.38125 9.339375 -10.75 6.625 C-9.52739612 1.3678033 -9.52739612 1.3678033 -7.05078125 -0.359375 C-4.27667909 -1.22595167 -2.72762499 -0.97914743 0 0 Z M20 10 C20.61875 10.66 21.2375 11.32 21.875 12 C24.49730709 15.7020806 25.0449255 18.59196384 26 23 C27.08552366 24.31262571 27.08552366 24.31262571 29.72265625 24.09765625 C30.82480469 24.08605469 31.92695313 24.07445312 33.0625 24.0625 C34.16722656 24.05347656 35.27195312 24.04445312 36.41015625 24.03515625 C37.26480469 24.02355469 38.11945313 24.01195312 39 24 C37.58465326 19.16423199 35.6634683 15.24490261 33 11 C30.35541621 9.67770811 28.32238699 9.90322806 25.375 9.9375 C23.87066406 9.95103516 23.87066406 9.95103516 22.3359375 9.96484375 C21.17964844 9.98224609 21.17964844 9.98224609 20 10 Z M25.08984375 56.67578125 C23.05002823 59.92878151 22 62.1225394 22 66 C25.73486879 66.5745952 29.21293268 67 33 67 C34.81190476 64.86715548 34.81190476 64.86715548 36.25 62.125 C36.77078125 61.22007812 37.2915625 60.31515625 37.828125 59.3828125 C39.14710655 57.14344804 39.14710655 57.14344804 39 55 C31.57292658 53.87862216 31.57292658 53.87862216 25.08984375 56.67578125 Z " fill="#349496" transform="translate(115,211)"/>
<path d="M0 0 C1.875 1.75 1.875 1.75 3 4 C3 6.5 3 6.5 2 9 C1.25878906 9.54011719 0.51757812 10.08023438 -0.24609375 10.63671875 C-3.84858483 13.72821818 -5.76503011 17.20404148 -8.0625 21.3125 C-8.48337891 22.04662109 -8.90425781 22.78074219 -9.33789062 23.53710938 C-10.16904 24.98936572 -10.99437537 26.44496706 -11.81347656 27.90405273 C-12.59205291 29.27937742 -13.3852864 30.64652822 -14.19433594 32.00415039 C-16.40431191 35.65987458 -16.40431191 35.65987458 -17.125 39.8125 C-15.6915685 43.87388924 -13.54021866 47.23837716 -11.1796875 50.828125 C-10.79039063 51.54484375 -10.40109375 52.2615625 -10 53 C-10.495 53.99 -10.495 53.99 -11 55 C-11.99 54.505 -11.99 54.505 -13 54 C-13 54.66 -13 55.32 -13 56 C-16.96 56 -20.92 56 -25 56 C-25 56.66 -25 57.32 -25 58 C-21.7 58 -18.4 58 -15 58 C-15.495 58.99 -15.495 58.99 -16 60 C-19.3 59.67 -22.6 59.34 -26 59 C-26 57.35 -26 55.7 -26 54 C-29.96 54 -33.92 54 -38 54 C-37.67 52.68 -37.34 51.36 -37 50 C-35.39592672 49.97291433 -33.7917215 49.95356517 -32.1875 49.9375 C-31.29417969 49.92589844 -30.40085937 49.91429687 -29.48046875 49.90234375 C-27 50 -27 50 -24 51 C-23.67 51.99 -23.34 52.98 -23 54 C-21.68 54 -20.36 54 -19 54 C-19.73230075 51.35099096 -19.73230075 51.35099096 -22 49 C-25.54239854 48.19068797 -29.0651606 48.20901885 -32.6875 48.1875 C-33.67556641 48.16236328 -34.66363281 48.13722656 -35.68164062 48.11132812 C-38.12149336 48.05239448 -40.55954995 48.01616192 -43 48 C-43 49.32 -43 50.64 -43 52 C-46.3 52 -49.6 52 -53 52 C-53 50.68 -53 49.36 -53 48 C-49.98968256 47.06576355 -49.13349732 46.95550089 -46 48 C-45.855625 47.360625 -45.71125 46.72125 -45.5625 46.0625 C-45 44 -45 44 -44 43 C-42.65984779 42.84417697 -41.31241097 42.74955858 -39.96484375 42.68359375 C-39.15595703 42.64169922 -38.34707031 42.59980469 -37.51367188 42.55664062 C-36.66353516 42.51732422 -35.81339844 42.47800781 -34.9375 42.4375 C-34.08349609 42.39431641 -33.22949219 42.35113281 -32.34960938 42.30664062 C-30.23327963 42.20023298 -28.11666187 42.09958269 -26 42 C-26.495 39.525 -26.495 39.525 -27 37 C-28.485 36.505 -28.485 36.505 -30 36 C-30 34.35 -30 32.7 -30 31 C-30.99 31.495 -30.99 31.495 -32 32 C-34.04055005 32.07065617 -36.08334257 32.08421976 -38.125 32.0625 C-39.22070312 32.05347656 -40.31640625 32.04445312 -41.4453125 32.03515625 C-42.28835937 32.02355469 -43.13140625 32.01195312 -44 32 C-44 30.68 -44 29.36 -44 28 C-37.30386804 27.202163 -30.74233419 26.87089147 -24 27 C-24 28.65 -24 30.3 -24 32 C-22.68 29.69 -21.36 27.38 -20 25 C-20.68707031 25 -21.37414062 25 -22.08203125 25 C-26.38802083 25 -30.69401042 25 -35 25 C-35.33 23.68 -35.66 22.36 -36 21 C-34.68 21 -33.36 21 -32 21 C-32 20.34 -32 19.68 -32 19 C-34.64 19 -37.28 19 -40 19 C-40 18.01 -40 17.02 -40 16 C-36.04 16 -32.08 16 -28 16 C-28 16.99 -28 17.98 -28 19 C-24.26888555 19.87790928 -20.83204782 20.34062647 -17 20 C-16.34 19.01 -15.68 18.02 -15 17 C-17.97 17 -20.94 17 -24 17 C-24 15.68 -24 14.36 -24 13 C-18.06 12.505 -18.06 12.505 -12 12 C-11.38125 9.339375 -11.38125 9.339375 -10.75 6.625 C-9.52739612 1.3678033 -9.52739612 1.3678033 -7.05078125 -0.359375 C-4.27667909 -1.22595167 -2.72762499 -0.97914743 0 0 Z " fill="#348E90" transform="translate(115,211)"/>
<path d="M0 0 C3.66666667 0 7.33333333 0 11 0 C11.66773438 -0.02320313 12.33546875 -0.04640625 13.0234375 -0.0703125 C13.79945313 -0.08835938 14.57546875 -0.10640625 15.375 -0.125 C16.53128906 -0.15980469 16.53128906 -0.15980469 17.7109375 -0.1953125 C20 0 20 0 22.0390625 1.1328125 C22.68617188 1.41898438 23.33328125 1.70515625 24 2 C26.01760994 1.17103019 26.01760994 1.17103019 28 0 C32.5825893 -0.70501374 35.99535301 -0.60697422 40 1.8125 C42.78652582 4.86026262 43.12584817 7.25540814 43.09765625 11.23046875 C43.09443359 12.03291016 43.09121094 12.83535156 43.08789062 13.66210938 C43.07532227 14.91217773 43.07532227 14.91217773 43.0625 16.1875 C43.05798828 17.03248047 43.05347656 17.87746094 43.04882812 18.74804688 C43.03705403 20.83206155 43.0191189 22.91603977 43 25 C40.03 25 37.06 25 34 25 C33.67 19.72 33.34 14.44 33 9 C30.525 8.505 30.525 8.505 28 8 C25.94077598 10.05922402 26.58572421 14.21708124 26.4375 17.0625 C26.39431641 17.82111328 26.35113281 18.57972656 26.30664062 19.36132812 C26.20026367 21.24065438 26.09960066 23.12030244 26 25 C23.03 25 20.06 25 17 25 C16.67 19.72 16.34 14.44 16 9 C14.35 8.67 12.7 8.34 11 8 C8.94077598 10.05922402 9.58572421 14.21708124 9.4375 17.0625 C9.39431641 17.82111328 9.35113281 18.57972656 9.30664062 19.36132812 C9.20026367 21.24065438 9.09960066 23.12030244 9 25 C6.03 25 3.06 25 0 25 C0 16.75 0 8.5 0 0 Z " fill="#BCC2C2" transform="translate(256,237)"/>
<path d="M0 0 C3.66666667 0 7.33333333 0 11 0 C11.65613281 -0.02320313 12.31226563 -0.04640625 12.98828125 -0.0703125 C17.61036795 -0.17906748 20.6926357 0.22637941 25 2 C25.99 1.34 26.98 0.68 28 0 C32.56051995 -0.73446576 36.01911074 -0.59262059 40 1.8125 C42.78652582 4.86026262 43.12584817 7.25540814 43.09765625 11.23046875 C43.09443359 12.03291016 43.09121094 12.83535156 43.08789062 13.66210938 C43.07532227 14.91217773 43.07532227 14.91217773 43.0625 16.1875 C43.05798828 17.03248047 43.05347656 17.87746094 43.04882812 18.74804688 C43.03705403 20.83206155 43.0191189 22.91603977 43 25 C40.03 25 37.06 25 34 25 C33.67 19.72 33.34 14.44 33 9 C30.525 8.505 30.525 8.505 28 8 C25.94077598 10.05922402 26.58572421 14.21708124 26.4375 17.0625 C26.39431641 17.82111328 26.35113281 18.57972656 26.30664062 19.36132812 C26.20026367 21.24065438 26.09960066 23.12030244 26 25 C23.03 25 20.06 25 17 25 C16.67 19.72 16.34 14.44 16 9 C14.35 8.67 12.7 8.34 11 8 C8.94077598 10.05922402 9.58572421 14.21708124 9.4375 17.0625 C9.39431641 17.82111328 9.35113281 18.57972656 9.30664062 19.36132812 C9.20026367 21.24065438 9.09960066 23.12030244 9 25 C6.03 25 3.06 25 0 25 C0 16.75 0 8.5 0 0 Z " fill="#95A0A0" transform="translate(308,237)"/>
<path d="M0 0 C0.83646801 5.85527605 1.10922375 11.59442266 1.125 17.5 C1.12951172 18.21865234 1.13402344 18.93730469 1.13867188 19.67773438 C1.1237479 24.8762521 1.1237479 24.8762521 0 26 C-2.92495564 26.31973199 -5.81621303 26.56263977 -8.75 26.75 C-9.96816406 26.85248047 -9.96816406 26.85248047 -11.2109375 26.95703125 C-16.04796576 27.2642692 -19.07357767 27.19903218 -23 24 C-26.40986205 20.03718735 -27.60770009 17.06947064 -27.32421875 11.95703125 C-26.66844813 7.99870501 -25.14108679 5.0635129 -22.21875 2.33984375 C-19.48360666 0.68816388 -17.91743092 0.72115336 -14.75 0.875 C-9.73475755 1.02290259 -4.94108 0 0 0 Z M-17 9 C-17.54228093 10.82258553 -17.54228093 10.82258553 -17.75 12.9375 C-17.84796875 13.64777344 -17.9459375 14.35804688 -18.046875 15.08984375 C-18.21361712 17.2460808 -18.21361712 17.2460808 -16 19 C-13.54290625 19.58350505 -13.54290625 19.58350505 -11 19 C-8.90237966 16.89299553 -8.90237966 16.89299553 -8 14 C-8.32221688 11.19418437 -8.32221688 11.19418437 -10 9 C-12.88856516 7.98900219 -14.23186483 7.61593242 -17 9 Z " fill="#B0B4B5" transform="translate(436,236)"/>
<path d="M0 0 C2.38993932 1.70866926 3.56790174 3.52796584 4.69921875 6.21484375 C4.69921875 6.87484375 4.69921875 7.53484375 4.69921875 8.21484375 C3.09542534 8.26900563 1.49110469 8.30771013 -0.11328125 8.33984375 C-1.00660156 8.36304688 -1.89992187 8.38625 -2.8203125 8.41015625 C-5.30078125 8.21484375 -5.30078125 8.21484375 -8.30078125 6.21484375 C-11.87834811 6.2140184 -11.87834811 6.2140184 -15.30078125 7.21484375 C-17.4246082 10.22974006 -17.45160636 12.38923303 -16.92578125 15.96484375 C-16.75949219 17.16367188 -16.75949219 17.16367188 -16.58984375 18.38671875 C-16.49445313 18.99 -16.3990625 19.59328125 -16.30078125 20.21484375 C-15.04265625 20.44171875 -13.78453125 20.66859375 -12.48828125 20.90234375 C-11.42673828 21.09376953 -11.42673828 21.09376953 -10.34375 21.2890625 C-8.19680304 21.44590994 -8.19680304 21.44590994 -6.86328125 19.74609375 C-5.30078125 18.21484375 -5.30078125 18.21484375 -2.8203125 17.921875 C-1.92699219 17.95667969 -1.03367188 17.99148437 -0.11328125 18.02734375 C1.23830078 18.06794922 1.23830078 18.06794922 2.6171875 18.109375 C3.64779297 18.16158203 3.64779297 18.16158203 4.69921875 18.21484375 C4.58866244 21.97375832 3.37671805 23.9235064 0.76171875 26.46484375 C-3.58375556 29.91802354 -7.83677399 30.59318886 -13.30078125 30.21484375 C-18.55956383 28.66307184 -21.75892439 26.38173417 -25.30078125 22.21484375 C-27.09705068 16.82603547 -27.51697944 10.33987319 -25.4296875 4.9765625 C-19.49974796 -4.10304985 -8.90680332 -4.91711539 0 0 Z " fill="#BEC4C4" transform="translate(210.30078125,232.78515625)"/>
<path d="M0 0 C2.97 0 5.94 0 9 0 C9.33 5.61 9.66 11.22 10 17 C11.65 17 13.3 17 15 17 C17.05922402 14.94077598 16.41427579 10.78291876 16.5625 7.9375 C16.60568359 7.17888672 16.64886719 6.42027344 16.69335938 5.63867188 C16.79973633 3.75934562 16.90039934 1.87969756 17 0 C19.97 0 22.94 0 26 0 C26 8.25 26 16.5 26 25 C22.37 25 18.74 25 15 25 C13.72125 25.226875 12.4425 25.45375 11.125 25.6875 C8 26 8 26 5.25 24.875 C2.1820206 22.3183505 0.22849756 20.00274142 -0.23876953 15.90722656 C-0.29483571 13.4938552 -0.26176968 11.10031233 -0.1875 8.6875 C-0.17396484 7.85154297 -0.16042969 7.01558594 -0.14648438 6.15429688 C-0.11131217 4.10258502 -0.05751048 2.05120725 0 0 Z " fill="#B0BABA" transform="translate(360,237)"/>
<path d="M0 0 C3.33023747 3.68963781 5.57588355 8.10474629 7.95629883 12.43945312 C8.77420898 13.88288086 8.77420898 13.88288086 9.60864258 15.35546875 C13.58129883 22.44949777 13.58129883 22.44949777 13.58129883 24.75195312 C7.01307611 25.65647532 0.62401124 25.81427508 -5.98120117 25.43945312 C-6.68374023 25.404729 -7.3862793 25.37000488 -8.11010742 25.33422852 C-13.17326945 24.99738485 -13.17326945 24.99738485 -15.41870117 22.75195312 C-14.09870117 22.75195312 -12.77870117 22.75195312 -11.41870117 22.75195312 C-11.41870117 21.43195313 -11.41870117 20.11195313 -11.41870117 18.75195312 C-6.79870117 18.75195312 -2.17870117 18.75195312 2.58129883 18.75195312 C1.26129883 17.10195312 -0.05870117 15.45195312 -1.41870117 13.75195312 C-3.23411555 10.47942984 -4.79781293 7.12880364 -6.41870117 3.75195312 C-13.01870117 3.42195312 -19.61870117 3.09195313 -26.41870117 2.75195312 C-26.74870117 3.74195313 -27.07870117 4.73195312 -27.41870117 5.75195312 C-29.48120117 6.43945312 -29.48120117 6.43945312 -31.41870117 6.75195312 C-31.41870117 8.73195312 -31.41870117 10.71195313 -31.41870117 12.75195312 C-32.07870117 12.75195312 -32.73870117 12.75195312 -33.41870117 12.75195312 C-34.21823255 9.46499079 -34.51529053 8.0417212 -33.41870117 4.75195312 C-32.75870117 4.75195312 -32.09870117 4.75195312 -31.41870117 4.75195312 C-31.41870117 3.76195312 -31.41870117 2.77195313 -31.41870117 1.75195312 C-30.75870117 1.09195313 -30.09870117 0.43195313 -29.41870117 -0.24804688 C-29.41870117 -1.23804688 -29.41870117 -2.22804687 -29.41870117 -3.24804688 C-5.97227485 -5.28007049 -5.97227485 -5.28007049 0 0 Z " fill="#339395" transform="translate(153.418701171875,217.248046875)"/>
<path d="M0 0 C3.91075925 1.98968453 5.57689098 3.36533646 8 7 C8.64795964 11.34473993 8.97893513 15.94504526 7.0546875 19.984375 C4.5377861 23.18194784 1.9622618 25.18953736 -2 26 C-6.64229967 26.13780481 -10.6383713 25.69641176 -14.4375 22.875 C-17.45044555 19.49462207 -18.39226073 17.48207712 -19 13 C-18.71770349 8.36857293 -17.49756211 5.61238413 -14.5625 2 C-10.21964346 -1.14777071 -5.09872638 -0.83337281 0 0 Z M-8.8125 8.625 C-10.39688122 11.79376243 -9.89669858 13.63738032 -9 17 C-7.87465895 18.35618499 -7.87465895 18.35618499 -4.9375 18.0625 C-3.968125 18.041875 -2.99875 18.02125 -2 18 C-0.44863214 15.53606281 0.03039129 14.31910854 -0.25 11.375 C-0.8484338 8.84399771 -0.8484338 8.84399771 -3 7 C-6.90933583 6.55496999 -6.90933583 6.55496999 -8.8125 8.625 Z " fill="#BCC3C3" transform="translate(240,237)"/>
<path d="M0 0 C1.875 1.75 1.875 1.75 3 4 C3 6.5 3 6.5 2 9 C1.26136719 9.53496094 0.52273437 10.06992188 -0.23828125 10.62109375 C-3.90091023 13.77603158 -5.85220645 17.37592986 -8.1875 21.5625 C-9.05545663 23.08493938 -9.9239261 24.60708653 -10.79296875 26.12890625 C-11.1696167 26.79994385 -11.54626465 27.47098145 -11.93432617 28.16235352 C-12.89203635 29.81382762 -13.94103454 31.41155181 -15 33 C-15.66 33 -16.32 33 -17 33 C-17 32.34 -17 31.68 -17 31 C-18.32 31 -19.64 31 -21 31 C-20.67 29.02 -20.34 27.04 -20 25 C-20.68707031 25 -21.37414062 25 -22.08203125 25 C-26.38802083 25 -30.69401042 25 -35 25 C-35.33 23.68 -35.66 22.36 -36 21 C-34.68 21 -33.36 21 -32 21 C-32 20.34 -32 19.68 -32 19 C-34.64 19 -37.28 19 -40 19 C-40 18.01 -40 17.02 -40 16 C-36.04 16 -32.08 16 -28 16 C-28 16.99 -28 17.98 -28 19 C-24.26888555 19.87790928 -20.83204782 20.34062647 -17 20 C-16.34 19.01 -15.68 18.02 -15 17 C-17.97 17 -20.94 17 -24 17 C-24 15.68 -24 14.36 -24 13 C-18.06 12.505 -18.06 12.505 -12 12 C-11.5875 10.22625 -11.175 8.4525 -10.75 6.625 C-9.52739612 1.3678033 -9.52739612 1.3678033 -7.05078125 -0.359375 C-4.27667909 -1.22595167 -2.72762499 -0.97914743 0 0 Z " fill="#328D8F" transform="translate(115,211)"/>
<path d="M0 0 C0.66 0.99 1.32 1.98 2 3 C1.01 3.33 0.02 3.66 -1 4 C-1.144375 4.763125 -1.28875 5.52625 -1.4375 6.3125 C-2 9 -2 9 -3 12 C-3 12.99 -3 13.98 -3 15 C-2.34 15 -1.68 15 -1 15 C-1 13.02 -1 11.04 -1 9 C0.32 8.67 1.64 8.34 3 8 C3 6.02 3 4.04 3 2 C3.99 2 4.98 2 6 2 C5.67 2.66 5.34 3.32 5 4 C11.27 4.33 17.54 4.66 24 5 C24.495 5.99 24.495 5.99 25 7 C21.37 7 17.74 7 14 7 C14.99 8.32 15.98 9.64 17 11 C17.90158338 13.64207321 18.40690851 16.26265467 19 19 C22.96 19.33 26.92 19.66 31 20 C31.33 19.34 31.66 18.68 32 18 C32.495 19.485 32.495 19.485 33 21 C28.38 21 23.76 21 19 21 C19 22.32 19 23.64 19 25 C18.34 25.33 17.68 25.66 17 26 C17.33 26.66 17.66 27.32 18 28 C16.25 27.9375 16.25 27.9375 14 27 C12.99835023 25.25519072 12.00123279 23.50635557 11.078125 21.71875 C9.5397233 19.26622555 7.56099969 18.24589174 5 17 C4 16 4 16 3.75 13.125 C4 10 4 10 5.5 8.125 C5.995 7.75375 6.49 7.3825 7 7 C6.34 7 5.68 7 5 7 C3.71593601 8.95224208 2.52058322 10.96340762 1.375 13 C0.74335937 14.11375 0.11171875 15.2275 -0.5390625 16.375 C-1.26222656 17.674375 -1.26222656 17.674375 -2 19 C-2.33 18.34 -2.66 17.68 -3 17 C-4.98 17 -6.96 17 -9 17 C-7.57997238 13.24069983 -5.87350167 9.77000304 -3.9375 6.25 C-3.14666016 4.80367187 -3.14666016 4.80367187 -2.33984375 3.328125 C-1 1 -1 1 0 0 Z " fill="#2F8A8E" transform="translate(123,215)"/>
<path d="M0 0 C-0.23806234 4.52318441 -1.70704438 7.29470689 -4.125 11 C-6.4934287 14.71776743 -6.4934287 14.71776743 -7.0625 19 C-6.711875 19.99 -6.36125 20.98 -6 22 C-5.773125 22.84175781 -5.54625 23.68351562 -5.3125 24.55078125 C-4.29310803 28.32046074 -4.29310803 28.32046074 -3 32 C-2.34 32.33 -1.68 32.66 -1 33 C-1 33.66 -1 34.32 -1 35 C-0.01 35 0.98 35 2 35 C3 38 3 38 1.9375 40.1875 C0 42 0 42 -3.1875 42.25 C-4.115625 42.1675 -5.04375 42.085 -6 42 C-6 39.03 -6 36.06 -6 33 C-6.66 33 -7.32 33 -8 33 C-8 31.68 -8 30.36 -8 29 C-8.763125 28.835 -9.52625 28.67 -10.3125 28.5 C-13.74156513 26.58610318 -14.52472419 24.94480327 -15.68359375 21.26953125 C-16.73240259 13.74659374 -11.17015152 5.85447455 -7 0 C-4.3333581 -1.33332095 -2.83319697 -0.67102033 0 0 Z " fill="#43B4B5" transform="translate(120,232)"/>
<path d="M0 0 C2.39263407 0.66771183 4.22097385 1.22097385 6 3 C6.10023409 5.26774891 6.13081341 7.53863163 6.1328125 9.80859375 C6.13376923 10.49051285 6.13472595 11.17243195 6.13571167 11.87501526 C6.13639339 13.32007947 6.13453969 14.76514672 6.13037109 16.21020508 C6.12503084 18.42471193 6.13031205 20.63901519 6.13671875 22.85351562 C6.13605781 24.25520878 6.13477631 25.65690181 6.1328125 27.05859375 C6.13168457 28.34048584 6.13055664 29.62237793 6.12939453 30.94311523 C6 34 6 34 5 36 C2.36 36 -0.28 36 -3 36 C-3 27 -3 18 -3 9 C-3.32033957 6.99787771 -3.65259077 4.99760305 -4 3 C-2.3125 1.375 -2.3125 1.375 0 0 Z " fill="#8F9A9B" transform="translate(449,226)"/>
<path d="M0 0 C3.4087928 1.3984791 4.87393835 2.85006933 6.75 6 C7.17796875 6.70125 7.6059375 7.4025 8.046875 8.125 C9 10 9 10 9 12 C7.578125 14.109375 7.578125 14.109375 5 16 C1.9029855 16.49468286 -1.12386965 16.37699905 -4.25 16.25 C-5.09046875 16.23195313 -5.9309375 16.21390625 -6.796875 16.1953125 C-8.86507395 16.14830798 -10.93268441 16.07656724 -13 16 C-13 15.01 -13 14.02 -13 13 C-16.63 13 -20.26 13 -24 13 C-24 11.68 -24 10.36 -24 9 C-19.38 9 -14.76 9 -10 9 C-9.67 9.66 -9.34 10.32 -9 11 C-6.64400765 11.46751788 -6.64400765 11.46751788 -3.9375 11.625 C-2.55884766 11.73714844 -2.55884766 11.73714844 -1.15234375 11.8515625 C-0.44207031 11.90054687 0.26820312 11.94953125 1 12 C0.505 11.4225 0.01 10.845 -0.5 10.25 C-2 8 -2 8 -2 4 C-5.3 4 -8.6 4 -12 4 C-12 3.34 -12 2.68 -12 2 C-8.04 2 -4.08 2 0 2 C0 1.34 0 0.68 0 0 Z " fill="#5D9395" transform="translate(102,265)"/>
<path d="M0 0 C0.90492188 0.02320313 1.80984375 0.04640625 2.7421875 0.0703125 C3.65226562 0.08835938 4.56234375 0.10640625 5.5 0.125 C6.19867188 0.14820313 6.89734375 0.17140625 7.6171875 0.1953125 C7.50663119 3.95422707 6.2946868 5.90397515 3.6796875 8.4453125 C-0.65834349 11.89257738 -4.92528287 12.58951608 -10.3828125 12.1953125 C-14.21260204 11.24323398 -18.19463736 9.61433615 -20.3828125 6.1953125 C-20.0703125 4.0078125 -20.0703125 4.0078125 -19.3828125 2.1953125 C-15.20510444 1.00168163 -13.32525909 1.61833387 -9.3828125 3.1953125 C-5.38369271 2.82330136 -3.60778782 0.29572031 0 0 Z " fill="#BBC1C1" transform="translate(207.3828125,250.8046875)"/>
<path d="M0 0 C2.31 0 4.62 0 7 0 C7 0.99 7 1.98 7 3 C8.98 3 10.96 3 13 3 C13.33 3.99 13.66 4.98 14 6 C12.35 6.66 10.7 7.32 9 8 C8.67 13.28 8.34 18.56 8 24 C5.36 24 2.72 24 0 24 C0 16.08 0 8.16 0 0 Z " fill="#C6CBCB" transform="translate(309,238)"/>
<path d="M0 0 C1.875 1.75 1.875 1.75 3 4 C3 6.5 3 6.5 2 9 C0.36395804 10.37073786 -1.30678061 11.70055256 -3 13 C-4.36821051 14.97630407 -5.70951192 16.97209016 -7 19 C-7.33 19 -7.66 19 -8 19 C-8 17.35 -8 15.7 -8 14 C-12.95 14 -17.9 14 -23 14 C-23 14.66 -23 15.32 -23 16 C-20.03 16 -17.06 16 -14 16 C-14.33 16.99 -14.66 17.98 -15 19 C-15 18.34 -15 17.68 -15 17 C-17.97 17 -20.94 17 -24 17 C-24 15.68 -24 14.36 -24 13 C-18.06 12.505 -18.06 12.505 -12 12 C-11.5875 10.22625 -11.175 8.4525 -10.75 6.625 C-9.52739612 1.3678033 -9.52739612 1.3678033 -7.05078125 -0.359375 C-4.27667909 -1.22595167 -2.72762499 -0.97914743 0 0 Z " fill="#44B4B3" transform="translate(115,211)"/>
<path d="M0 0 C3.23453807 0.60177453 5.38805962 1.25365411 7.51171875 3.84375 C11 9.36103152 11 9.36103152 11 12 C4.43177729 12.9045222 -1.95728759 13.06232196 -8.5625 12.6875 C-9.26503906 12.65277588 -9.96757812 12.61805176 -10.69140625 12.58227539 C-15.75456827 12.24543173 -15.75456827 12.24543173 -18 10 C-16.68 10 -15.36 10 -14 10 C-14 8.68 -14 7.36 -14 6 C-9.05 5.67 -4.1 5.34 1 5 C0.67 3.35 0.34 1.7 0 0 Z " fill="#46B3B3" transform="translate(156,230)"/>
<path d="M0 0 C0.625 1.875 0.625 1.875 1 4 C0.34 4.66 -0.32 5.32 -1 6 C-2.32 6 -3.64 6 -5 6 C-5.99 8.64 -6.98 11.28 -8 14 C-8.66 14 -9.32 14 -10 14 C-10.268125 14.639375 -10.53625 15.27875 -10.8125 15.9375 C-12 18 -12 18 -15 19 C-16.59984287 15.80031426 -16.3629489 12.48042073 -16 9 C-12.72684065 0.32612772 -8.58220266 -0.49512708 0 0 Z " fill="#D6D7D8" transform="translate(425,237)"/>
<path d="M0 0 C-0.01160156 0.96421875 -0.02320313 1.9284375 -0.03515625 2.921875 C-0.04417969 4.18515625 -0.05320313 5.4484375 -0.0625 6.75 C-0.07410156 8.00296875 -0.08570313 9.2559375 -0.09765625 10.546875 C-0.02021027 13.28536501 0.17219185 15.41880293 1 18 C0.05125 18.12375 -0.8975 18.2475 -1.875 18.375 C-5.08667191 18.71687177 -5.08667191 18.71687177 -7 21 C-9.02808782 17.63062701 -9.29772548 14.96789912 -9.3125 11.0625 C-9.32925781 10.04285156 -9.34601563 9.02320313 -9.36328125 7.97265625 C-8.94775067 4.57245443 -8.0707962 2.71094865 -6 0 C-3 -1 -3 -1 0 0 Z " fill="#C2C7C8" transform="translate(193,235)"/>
<path d="M0 0 C1.32 0.33 2.64 0.66 4 1 C3.29186565 5.95694043 1.54556225 9.45443775 -2 13 C-5.13495833 14.07699881 -8.14005964 14.16463287 -11.4375 14.1875 C-12.36433594 14.20167969 -13.29117188 14.21585937 -14.24609375 14.23046875 C-17.17833373 13.98507562 -19.33861389 13.22201577 -22 12 C-22 11.01 -22 10.02 -22 9 C-19.41703099 8.66361334 -16.83368737 8.3307835 -14.25 8 C-13.52039063 7.90460938 -12.79078125 7.80921875 -12.0390625 7.7109375 C-8.65143196 7.27978452 -5.42145141 7 -2 7 C-2 6.34 -2 5.68 -2 5 C-1.34 5 -0.68 5 0 5 C0 3.35 0 1.7 0 0 Z " fill="#35989A" transform="translate(131,273)"/>
<path d="M0 0 C2.64 0 5.28 0 8 0 C8.02712351 2.39591038 8.0468982 4.79150957 8.0625 7.1875 C8.07087891 7.86103516 8.07925781 8.53457031 8.08789062 9.22851562 C8.10606538 12.95434131 7.89299392 16.3788042 7 20 C5.02 20.33 3.04 20.66 1 21 C0.07811539 18.23434618 -0.11785222 16.61716298 -0.09765625 13.76953125 C-0.09282227 12.56586914 -0.09282227 12.56586914 -0.08789062 11.33789062 C-0.07951172 10.50451172 -0.07113281 9.67113281 -0.0625 8.8125 C-0.05798828 7.96751953 -0.05347656 7.12253906 -0.04882812 6.25195312 C-0.03705403 4.16793845 -0.0191189 2.08396023 0 0 Z " fill="#C1C6C6" transform="translate(360,237)"/>
<path d="M0 0 C0.66 0.99 1.32 1.98 2 3 C1.01 3.33 0.02 3.66 -1 4 C-1.144375 4.763125 -1.28875 5.52625 -1.4375 6.3125 C-2 9 -2 9 -3 12 C-3 12.99 -3 13.98 -3 15 C-2.34 15 -1.68 15 -1 15 C-1 13.02 -1 11.04 -1 9 C0.32 8.67 1.64 8.34 3 8 C3 6.02 3 4.04 3 2 C3.99 2 4.98 2 6 2 C5.67 2.66 5.34 3.32 5 4 C11.27 4.33 17.54 4.66 24 5 C24.495 5.99 24.495 5.99 25 7 C21.37 7 17.74 7 14 7 C14 7.33 14 7.66 14 8 C12.35 8.33 10.7 8.66 9 9 C8.67 11.31 8.34 13.62 8 16 C7.01 16.33 6.02 16.66 5 17 C4 16 4 16 3.75 13.125 C4 10 4 10 5.5 8.125 C5.995 7.75375 6.49 7.3825 7 7 C6.34 7 5.68 7 5 7 C3.71593601 8.95224208 2.52058322 10.96340762 1.375 13 C0.74335937 14.11375 0.11171875 15.2275 -0.5390625 16.375 C-1.26222656 17.674375 -1.26222656 17.674375 -2 19 C-2.33 18.34 -2.66 17.68 -3 17 C-4.98 17 -6.96 17 -9 17 C-7.57997238 13.24069983 -5.87350167 9.77000304 -3.9375 6.25 C-3.14666016 4.80367187 -3.14666016 4.80367187 -2.33984375 3.328125 C-1 1 -1 1 0 0 Z " fill="#37999E" transform="translate(123,215)"/>
<path d="M0 0 C4 0 4 0 8 1 C8 6.94 8 12.88 8 19 C5.36 19 2.72 19 0 19 C0 12.73 0 6.46 0 0 Z " fill="#C5CBCC" transform="translate(343,243)"/>
<path d="M0 0 C1.23037303 2.46074606 1 4.2797563 1 7 C2.04862094 8.25156054 2.04862094 8.25156054 4.375 8.3125 C5.24125 8.209375 6.1075 8.10625 7 8 C7.99 6.68 8.98 5.36 10 4 C10 7.96 10 11.92 10 16 C0.79885877 17.34950071 0.79885877 17.34950071 -3 15.6875 C-5 14 -5 14 -7 12 C-7 9 -7 9 -5.125 6.8125 C-3 5 -3 5 -1 5 C-0.67 3.35 -0.34 1.7 0 0 Z " fill="#B5BCBC" transform="translate(418,246)"/>
<path d="M0 0 C1.98 0 3.96 0 6 0 C6 7.92 6 15.84 6 24 C4.02 24 2.04 24 0 24 C0 16.08 0 8.16 0 0 Z " fill="#D7D9DA" transform="translate(447,238)"/>
<path d="M0 0 C2.23465229 3.35197843 2.27108649 4.57791246 2.25 8.5 C2.25515625 9.4590625 2.2603125 10.418125 2.265625 11.40625 C2 14 2 14 0 17 C-2.4375 16.1875 -2.4375 16.1875 -5 15 C-5.95928532 12.12214405 -6.77029018 9.24023193 -7.5625 6.3125 C-7.83191406 5.31863281 -8.10132813 4.32476562 -8.37890625 3.30078125 C-8.58386719 2.54152344 -8.78882813 1.78226563 -9 1 C-5.53888716 -0.9072941 -3.83312509 -1.31133227 0 0 Z " fill="#CBD0D0" transform="translate(246,241)"/>
<path d="M0 0 C7.26 0 14.52 0 22 0 C21.01 0.495 21.01 0.495 20 1 C20 1.99 20 2.98 20 4 C20.99 4.33 21.98 4.66 23 5 C16.4 5 9.8 5 3 5 C2.67 5.99 2.34 6.98 2 8 C-0.0625 8.6875 -0.0625 8.6875 -2 9 C-2 10.98 -2 12.96 -2 15 C-2.66 15 -3.32 15 -4 15 C-4.79953138 11.71303767 -5.09658936 10.28976808 -4 7 C-3.34 7 -2.68 7 -2 7 C-2 6.01 -2 5.02 -2 4 C-1.34 3.34 -0.68 2.68 0 2 C0 1.34 0 0.68 0 0 Z " fill="#43B4B7" transform="translate(124,215)"/>
<path d="M0 0 C0.99 0 1.98 0 3 0 C4.125 4.75 4.125 4.75 3 7 C3.99 7 4.98 7 6 7 C8.37269119 9.5552059 9.19719131 11.67407829 10 15 C10.66 15.33 11.32 15.66 12 16 C12 16.66 12 17.32 12 18 C12.99 18 13.98 18 15 18 C16 21 16 21 14.9375 23.1875 C13 25 13 25 9.8125 25.25 C8.884375 25.1675 7.95625 25.085 7 25 C7 22.03 7 19.06 7 16 C6.34 16 5.68 16 5 16 C5 14.68 5 13.36 5 12 C4.01 11.67 3.02 11.34 2 11 C1.87625 10.195625 1.7525 9.39125 1.625 8.5625 C1.315625 7.2940625 1.315625 7.2940625 1 6 C0.34 5.67 -0.32 5.34 -1 5 C-0.67 3.35 -0.34 1.7 0 0 Z " fill="#40B6B8" transform="translate(107,249)"/>
<path d="M0 0 C2.64 0 5.28 0 8 0 C8 0.66 8 1.32 8 2 C9.65 1.67 11.3 1.34 13 1 C12.67 2.65 12.34 4.3 12 6 C12.66 6 13.32 6 14 6 C14 6.66 14 7.32 14 8 C9.45967044 10.17935819 6.14912794 11.59873581 1 11 C-1 9 -1 9 -1.1875 5.5 C-1 2 -1 2 0 0 Z " fill="#3DA2A4" transform="translate(136,278)"/>
<path d="M0 0 C0 1.65 0 3.3 0 5 C0.99 3.35 1.98 1.7 3 0 C3.33 0.66 3.66 1.32 4 2 C3.67 2.66 3.34 3.32 3 4 C4.32 4 5.64 4 7 4 C7.625 5.875 7.625 5.875 8 8 C7.34 8.66 6.68 9.32 6 10 C6 8.68 6 7.36 6 6 C2.04 6 -1.92 6 -6 6 C-6.33 5.34 -6.66 4.68 -7 4 C-7.33 4.33 -7.66 4.66 -8 5 C-10.01964199 5.07244053 -12.04167124 5.08377188 -14.0625 5.0625 C-15.16722656 5.05347656 -16.27195312 5.04445312 -17.41015625 5.03515625 C-18.69212891 5.01775391 -18.69212891 5.01775391 -20 5 C-20 3.68 -20 2.36 -20 1 C-13.30386804 0.202163 -6.74233419 -0.12910853 0 0 Z " fill="#073736" transform="translate(91,238)"/>
<path d="M0 0 C2.475 0.99 2.475 0.99 5 2 C5 6.95 5 11.9 5 17 C2.69 17 0.38 17 -2 17 C-2 11.72 -2 6.44 -2 1 C-1.34 0.67 -0.68 0.34 0 0 Z " fill="#D9D8D9" transform="translate(328,245)"/>
<path d="M0 0 C0.33 0 0.66 0 1 0 C1.33 5.61 1.66 11.22 2 17 C6.627322 17.372678 6.627322 17.372678 9 16 C9 17.32 9 18.64 9 20 C8.01 20 7.02 20 6 20 C6 20.99 6 21.98 6 23 C7.32 22.67 8.64 22.34 10 22 C9.67 22.99 9.34 23.98 9 25 C1.08807556 26.43069658 1.08807556 26.43069658 -3 24.8125 C-5.15920836 22.85571743 -5.7041325 21.86005251 -6 19 C-5.34 19.33 -4.68 19.66 -4 20 C-1.87932891 19.22351701 -1.87932891 19.22351701 -1.41015625 17.421875 C-0.83854523 14.04664802 -0.63427916 10.66298942 -0.4375 7.25 C-0.39431641 6.55261719 -0.35113281 5.85523438 -0.30664062 5.13671875 C-0.20110404 3.42468078 -0.1001009 1.71236439 0 0 Z " fill="#B8BFBE" transform="translate(368,237)"/>
<path d="M0 0 C0.33 0 0.66 0 1 0 C1 5.61 1 11.22 1 17 C-1.31 17 -3.62 17 -6 17 C-6 11.72 -6 6.44 -6 1 C-4.68 1.33 -3.36 1.66 -2 2 C-1.34 1.34 -0.68 0.68 0 0 Z " fill="#D6DADB" transform="translate(297,245)"/>
<path d="M0 0 C1.33333333 1.33333333 2.66666667 2.66666667 4 4 C4.86625 4.845625 5.7325 5.69125 6.625 6.5625 C9 9 9 9 11 12 C10.44444444 17.55555556 10.44444444 17.55555556 9 19 C1.55307717 19.42152393 1.55307717 19.42152393 -2 17 C-2.7578125 15.046875 -2.7578125 15.046875 -3.125 12.75 C-3.79878746 9.02612107 -4.71781204 5.5718093 -6 2 C-5.01 2.33 -4.02 2.66 -3 3 C-3 4.32 -3 5.64 -3 7 C-2.34 7 -1.68 7 -1 7 C-1 9.97 -1 12.94 -1 16 C1.31 15.34 3.62 14.68 6 14 C6.33 12.35 6.66 10.7 7 9 C6.01 9 5.02 9 4 9 C4 8.34 4 7.68 4 7 C3.01 6.67 2.02 6.34 1 6 C0.67 4.02 0.34 2.04 0 0 Z " fill="#32898A" transform="translate(115,258)"/>
<path d="M0 0 C1.32 1.32 2.64 2.64 4 4 C3.67 4.66 3.34 5.32 3 6 C2.34 5.67 1.68 5.34 1 5 C1 5.66 1 6.32 1 7 C-2.96 7 -6.92 7 -11 7 C-11 7.66 -11 8.32 -11 9 C-7.7 9 -4.4 9 -1 9 C-1.33 9.66 -1.66 10.32 -2 11 C-5.3 10.67 -8.6 10.34 -12 10 C-12 8.35 -12 6.7 -12 5 C-15.96 5 -19.92 5 -24 5 C-23.67 3.68 -23.34 2.36 -23 1 C-21.39592672 0.97291433 -19.7917215 0.95356517 -18.1875 0.9375 C-17.29417969 0.92589844 -16.40085937 0.91429687 -15.48046875 0.90234375 C-13 1 -13 1 -10 2 C-9.67 2.99 -9.34 3.98 -9 5 C-6.03 5 -3.06 5 0 5 C0 3.35 0 1.7 0 0 Z " fill="#1B6769" transform="translate(101,260)"/>
<path d="M0 0 C3.4087928 1.3984791 4.87393835 2.85006933 6.75 6 C7.17796875 6.70125 7.6059375 7.4025 8.046875 8.125 C9 10 9 10 9 12 C8.01 12.33 7.02 12.66 6 13 C6 12.34 6 11.68 6 11 C5.05125 10.87625 4.1025 10.7525 3.125 10.625 C0 10 0 10 -2 8 C-2 6.68 -2 5.36 -2 4 C-5.3 4 -8.6 4 -12 4 C-12 3.34 -12 2.68 -12 2 C-8.04 2 -4.08 2 0 2 C0 1.34 0 0.68 0 0 Z " fill="#318B90" transform="translate(102,265)"/>
<path d="M0 0 C0.2475 0.5775 0.495 1.155 0.75 1.75 C2.16683317 4.3002997 3.87627537 6.01785701 6 8 C2.73536177 11.26463823 -0.49210523 11.57159403 -4.87890625 12.08203125 C-7 12 -7 12 -10 10 C-9.34 10 -8.68 10 -8 10 C-8 8.68 -8 7.36 -8 6 C-7.34 6 -6.68 6 -6 6 C-6 5.34 -6 4.68 -6 4 C-4.35 4 -2.7 4 -1 4 C-0.67 2.68 -0.34 1.36 0 0 Z " fill="#B9C0C0" transform="translate(239,251)"/>
<path d="M0 0 C1.41623216 -0.05447047 2.83308191 -0.09300508 4.25 -0.125 C5.03890625 -0.14820313 5.8278125 -0.17140625 6.640625 -0.1953125 C9.2183574 0.01807594 10.73551554 0.81018613 13 2 C15.19747131 1.70194993 15.19747131 1.70194993 17 1 C15.66667905 4.99996286 13.5042173 5.83782337 10 8 C9.67 7.67 9.34 7.34 9 7 C7.81304447 10.56086658 7.64904582 13.97331024 7.4375 17.6875 C7.39431641 18.38939453 7.35113281 19.09128906 7.30664062 19.81445312 C7.2008264 21.54275206 7.09993419 23.2713511 7 25 C6.67 25 6.34 25 6 25 C5.97421875 23.87980469 5.9484375 22.75960938 5.921875 21.60546875 C5.86559365 20.13277354 5.80824632 18.6601188 5.75 17.1875 C5.73582031 16.44951172 5.72164063 15.71152344 5.70703125 14.95117188 C5.53490953 10.47562582 5.53490953 10.47562582 2.953125 6.98828125 C2.30859375 6.66214844 1.6640625 6.33601562 1 6 C1.66 6 2.32 6 3 6 C3.33 4.68 3.66 3.36 4 2 C2.35 2 0.7 2 -1 2 C-0.67 1.34 -0.34 0.68 0 0 Z " fill="#99A3A3" transform="translate(267,237)"/>
<path d="M0 0 C1.9375 1.5 1.9375 1.5 3 3 C2.67 3.99 2.34 4.98 2 6 C0 6.625 0 6.625 -2 7 C-4.05922402 9.05922402 -3.41427579 13.21708124 -3.5625 16.0625 C-3.60568359 16.82111328 -3.64886719 17.57972656 -3.69335938 18.36132812 C-3.79973633 20.24065438 -3.90039934 22.12030244 -4 24 C-4.33 24 -4.66 24 -5 24 C-5.06058594 22.87980469 -5.12117188 21.75960938 -5.18359375 20.60546875 C-5.26801424 19.13280016 -5.35266149 17.66014456 -5.4375 16.1875 C-5.47681641 15.44951172 -5.51613281 14.71152344 -5.55664062 13.95117188 C-5.74381035 10.76928658 -5.98720793 8.03837622 -7 5 C-8.98 5 -10.96 5 -13 5 C-13.33 4.34 -13.66 3.68 -14 3 C-9.1141349 0.60692322 -5.56782839 -0.64244174 0 0 Z " fill="#ACB4B5" transform="translate(347,238)"/>
<path d="M0 0 C1.33998047 0.06960937 1.33998047 0.06960937 2.70703125 0.140625 C3.60808594 0.17671875 4.50914062 0.2128125 5.4375 0.25 C6.12457031 0.29640625 6.81164062 0.3428125 7.51953125 0.390625 C7.40897494 4.14953957 6.19703055 6.09928765 3.58203125 8.640625 C-0.72156138 12.13729401 -5.08572334 12.36891576 -10.48046875 12.390625 C-10.81046875 11.400625 -11.14046875 10.410625 -11.48046875 9.390625 C-9.00546875 9.885625 -9.00546875 9.885625 -6.48046875 10.390625 C-6.15046875 9.400625 -5.82046875 8.410625 -5.48046875 7.390625 C-2.9765625 6.44140625 -2.9765625 6.44140625 0.08203125 5.703125 C1.59990234 5.32607422 1.59990234 5.32607422 3.1484375 4.94140625 C3.93089844 4.75964844 4.71335938 4.57789063 5.51953125 4.390625 C5.51953125 3.730625 5.51953125 3.070625 5.51953125 2.390625 C1.83687022 2.99012796 -1.8259006 3.63821391 -5.48046875 4.390625 C-3.17521711 0.50003419 -3.17521711 0.50003419 0 0 Z " fill="#B2BABA" transform="translate(207.48046875,250.609375)"/>
<path d="M0 0 C3.22388187 0.93322896 4.66015657 1.41299771 6.375 4.375 C7 7 7 7 6 11 C0.72 11 -4.56 11 -10 11 C-9.67 10.01 -9.34 9.02 -9 8 C-7.72125 7.9175 -6.4425 7.835 -5.125 7.75 C-1.78656187 7.41344461 -1.78656187 7.41344461 0.5625 5.125 C1.22062677 2.82681985 1.22062677 2.82681985 0 0 Z " fill="#3EB6B9" transform="translate(156,230)"/>
<path d="M0 0 C1.33332095 2.6666419 0.67102033 4.16680303 0 7 C1.65 6.67 3.3 6.34 5 6 C3.54955729 10.10958767 1.48889248 13.43258745 -1 17 C-2.32 16.67 -3.64 16.34 -5 16 C-5 14.68 -5 13.36 -5 12 C-6.32 12 -7.64 12 -9 12 C-8 10 -8 10 -5 9 C-3.54355243 6.91187542 -3.54355243 6.91187542 -2.3125 4.4375 C-1.87550781 3.61121094 -1.43851563 2.78492188 -0.98828125 1.93359375 C-0.66214844 1.29550781 -0.33601562 0.65742188 0 0 Z " fill="#339397" transform="translate(153,268)"/>
<path d="M0 0 C0.66 0.66 1.32 1.32 2 2 C1.63793105 5.49999986 0.15883901 8.26547059 -2 11 C-5.6875 12.3125 -5.6875 12.3125 -9 13 C-7.11538462 4.15680473 -7.11538462 4.15680473 -4 2 C-1.8125 0.8125 -1.8125 0.8125 0 0 Z " fill="#41B3B2" transform="translate(161,263)"/>
<path d="M0 0 C1.8125 0.9375 1.8125 0.9375 2.8125 3.9375 C2.89271999 5.34574893 2.92015977 6.75747231 2.91015625 8.16796875 C2.90693359 8.97041016 2.90371094 9.77285156 2.90039062 10.59960938 C2.88782227 11.84967773 2.88782227 11.84967773 2.875 13.125 C2.87048828 13.96998047 2.86597656 14.81496094 2.86132812 15.68554688 C2.84955403 17.76956155 2.8316189 19.85353977 2.8125 21.9375 C2.4825 21.9375 2.1525 21.9375 1.8125 21.9375 C1.4825 16.6575 1.1525 11.3775 0.8125 5.9375 C-0.1775 6.5975 -1.1675 7.2575 -2.1875 7.9375 C-3.1775 7.2775 -4.1675 6.6175 -5.1875 5.9375 C-5.1875 11.2175 -5.1875 16.4975 -5.1875 21.9375 C-5.5175 21.9375 -5.8475 21.9375 -6.1875 21.9375 C-6.29556144 19.01984109 -6.37482877 16.10618875 -6.4375 13.1875 C-6.47101563 12.3625 -6.50453125 11.5375 -6.5390625 10.6875 C-6.63794933 4.55651664 -6.63794933 4.55651664 -4.30859375 1.35546875 C-2.1875 -0.0625 -2.1875 -0.0625 0 0 Z " fill="#889594" transform="translate(296.1875,240.0625)"/>
<path d="M0 0 C0.7425 0.2475 1.485 0.495 2.25 0.75 C1.93031467 4.26653861 1.62757864 6.28431968 -0.625 9.0625 C-2.75 10.75 -2.75 10.75 -5.75 11.75 C-6.75 10.75 -6.75 10.75 -7.0625 7.4375 C-6.75 3.75 -6.75 3.75 -5.0625 1.25 C-2.75 -0.25 -2.75 -0.25 0 0 Z " fill="#3AA2A5" transform="translate(117.75,231.25)"/>
<path d="M0 0 C0.763125 0.20625 1.52625 0.4125 2.3125 0.625 C2.9375 3.5 2.9375 3.5 3.3125 6.625 C1.3125 8.625 1.3125 8.625 -1.75 8.8125 C-4.6875 8.625 -4.6875 8.625 -5.6875 7.625 C-5.9375 4.6875 -5.9375 4.6875 -5.6875 1.625 C-2.6875 -0.375 -2.6875 -0.375 0 0 Z " fill="#A4B0B2" transform="translate(399.6875,253.375)"/>
<path d="M0 0 C1.07765625 0.00902344 2.1553125 0.01804687 3.265625 0.02734375 C4.08546875 0.03894531 4.9053125 0.05054688 5.75 0.0625 C5.42 0.7225 5.09 1.3825 4.75 2.0625 C5.41 2.7225 6.07 3.3825 6.75 4.0625 C-1.17 4.5575 -1.17 4.5575 -9.25 5.0625 C-9.58 3.7425 -9.91 2.4225 -10.25 1.0625 C-6.78777385 -0.00473961 -3.60960734 -0.03923486 0 0 Z " fill="#3EADAF" transform="translate(119.25,280.9375)"/>
<path d="M0 0 C3.875 0.875 3.875 0.875 5 2 C6.84891946 2.23363881 8.70488031 2.41303635 10.5625 2.5625 C11.57441406 2.64628906 12.58632812 2.73007812 13.62890625 2.81640625 C14.80259766 2.90728516 14.80259766 2.90728516 16 3 C16 3.33 16 3.66 16 4 C8.08 4.495 8.08 4.495 0 5 C0 5.66 0 6.32 0 7 C-0.66 7 -1.32 7 -2 7 C-2 6.34 -2 5.68 -2 5 C-7.61 5 -13.22 5 -19 5 C-19 4.67 -19 4.34 -19 4 C-13.39 4 -7.78 4 -2 4 C-1.34 2.68 -0.68 1.36 0 0 Z " fill="#2A8486" transform="translate(109,277)"/>
<path d="M0 0 C-0.33 0.99 -0.66 1.98 -1 3 C-1.66 3 -2.32 3 -3 3 C-3 4.32 -3 5.64 -3 7 C-2.34 7.33 -1.68 7.66 -1 8 C-1 8.66 -1 9.32 -1 10 C-8.59 10 -16.18 10 -24 10 C-24 9.67 -24 9.34 -24 9 C-18.06 8.67 -12.12 8.34 -6 8 C-6.33 6.35 -6.66 4.7 -7 3 C-7.99 2.34 -8.98 1.68 -10 1 C-6.59437148 0.22157062 -3.49234244 -0.09978121 0 0 Z " fill="#1E6262" transform="translate(95,245)"/>
<path d="M0 0 C6.27 0 12.54 0 19 0 C19.33 0.66 19.66 1.32 20 2 C16.37 2 12.74 2 9 2 C9 2.33 9 2.66 9 3 C7.35 3.33 5.7 3.66 4 4 C3.67 6.31 3.34 8.62 3 11 C2.01 11.33 1.02 11.66 0 12 C-1 11 -1 11 -1.25 8.125 C-1 5 -1 5 0.5 3.125 C0.995 2.75375 1.49 2.3825 2 2 C1.34 1.34 0.68 0.68 0 0 Z " fill="#1E6A6B" transform="translate(128,220)"/>
<path d="M0 0 C1.33333333 0 2.66666667 0 4 0 C4 2.31 4 4.62 4 7 C1.92446352 7.5534764 0.15634036 8 -2 8 C-2 7.34 -2 6.68 -2 6 C-3.32 6.33 -4.64 6.66 -6 7 C-6 6.01 -6 5.02 -6 4 C-6.99 3.67 -7.98 3.34 -9 3 C-7.6078125 3.0928125 -7.6078125 3.0928125 -6.1875 3.1875 C-3.02209709 3.3314563 -3.02209709 3.3314563 -1.3125 1.5 C-0.6628125 0.7575 -0.6628125 0.7575 0 0 Z " fill="#D6D8D7" transform="translate(380,253)"/>
<path d="M0 0 C4.95 0 9.9 0 15 0 C15 1.98 15 3.96 15 6 C12.3333581 7.33332095 10.83319697 6.67102033 8 6 C8.33 4.68 8.66 3.36 9 2 C6.03 2 3.06 2 0 2 C0 1.34 0 0.68 0 0 Z " fill="#4CAFB2" transform="translate(92,225)"/>
<path d="M0 0 C0.8971875 0.309375 0.8971875 0.309375 1.8125 0.625 C1.8125 1.285 1.8125 1.945 1.8125 2.625 C1.03003906 2.89054688 0.24757812 3.15609375 -0.55859375 3.4296875 C-1.57050781 3.78289062 -2.58242187 4.13609375 -3.625 4.5 C-5.13900391 5.02207031 -5.13900391 5.02207031 -6.68359375 5.5546875 C-9.32721751 6.36555093 -9.32721751 6.36555093 -10.1875 8.625 C-12.6625 7.635 -12.6625 7.635 -15.1875 6.625 C-14.8575 5.635 -14.5275 4.645 -14.1875 3.625 C-12.2265625 2.96484375 -12.2265625 2.96484375 -9.8125 2.5625 C-6.29674352 1.96127129 -3.2645942 -0.55964472 0 0 Z " fill="#D8DADA" transform="translate(211.1875,252.375)"/>
<path d="M0 0 C0.66 0.33 1.32 0.66 2 1 C2 5.62 2 10.24 2 15 C-0.31 15 -2.62 15 -5 15 C-4.67 13.35 -4.34 11.7 -4 10 C-3.01 9.67 -2.02 9.34 -1 9 C-0.67 6.03 -0.34 3.06 0 0 Z " fill="#D4DBDB" transform="translate(314,247)"/>
<path d="M0 0 C1.40907283 2.81814566 0.50872691 4.17277204 -0.4375 7.125 C-0.86869141 8.49011719 -0.86869141 8.49011719 -1.30859375 9.8828125 C-1.53675781 10.58148438 -1.76492187 11.28015625 -2 12 C-2.66 12 -3.32 12 -4 12 C-4 12.66 -4 13.32 -4 14 C-7.3 14 -10.6 14 -14 14 C-14 13.34 -14 12.68 -14 12 C-15.32 11.67 -16.64 11.34 -18 11 C-15.11301479 9.5565074 -13.10530768 10.36626374 -10 11 C-9.01 11.33 -8.02 11.66 -7 12 C-4.69 8.04 -2.38 4.08 0 0 Z " fill="#2E8081" transform="translate(133,266)"/>
<path d="M0 0 C3.96 0 7.92 0 12 0 C11.4140625 9.27734375 11.4140625 9.27734375 11 12 C10.01 12.495 10.01 12.495 9 13 C9 11.68 9 10.36 9 9 C8.01 8.67 7.02 8.34 6 8 C6.33 6.68 6.66 5.36 7 4 C7.66 4 8.32 4 9 4 C9 3.34 9 2.68 9 2 C6.03 2 3.06 2 0 2 C0 1.34 0 0.68 0 0 Z " fill="#45B3B5" transform="translate(85,244)"/>
<path d="M0 0 C0 0.33 0 0.66 0 1 C-1.60875 1.0928125 -1.60875 1.0928125 -3.25 1.1875 C-7.68634559 2.14870821 -8.4916469 3.3768233 -11 7 C-11.66 7 -12.32 7 -13 7 C-13.144375 7.721875 -13.28875 8.44375 -13.4375 9.1875 C-13.95833333 11.79166667 -14.47916667 14.39583333 -15 17 C-15.33 17 -15.66 17 -16 17 C-16.33680871 10.48836494 -15.8203206 6.25421608 -11.375 1.125 C-7.6844306 -0.62316445 -4.01496153 -0.2316324 0 0 Z " fill="#9BA8A9" transform="translate(425,237)"/>
<path d="M0 0 C1.65 0 3.3 0 5 0 C4.67 2.64 4.34 5.28 4 8 C1.69 7.67 -0.62 7.34 -3 7 C-2.67 5.35 -2.34 3.7 -2 2 C-1.34 2 -0.68 2 0 2 C0 1.34 0 0.68 0 0 Z " fill="#3FB6B9" transform="translate(138,279)"/>
<path d="M0 0 C3.96 0 7.92 0 12 0 C12 1.32 12 2.64 12 4 C8.04 4 4.08 4 0 4 C0 2.68 0 1.36 0 0 Z " fill="#8D9D9E" transform="translate(71,239)"/>
<path d="M0 0 C1.33333333 1.33333333 2.66666667 2.66666667 4 4 C5.299375 5.2684375 5.299375 5.2684375 6.625 6.5625 C9 9 9 9 11 12 C10.75 15.125 10.75 15.125 10 18 C9.34 18.33 8.68 18.66 8 19 C7 11.25 7 11.25 7 9 C6.01 9 5.02 9 4 9 C4 8.34 4 7.68 4 7 C3.01 6.67 2.02 6.34 1 6 C0.67 4.02 0.34 2.04 0 0 Z " fill="#338382" transform="translate(115,258)"/>
<path d="M0 0 C0.99 0.33 1.98 0.66 3 1 C3 2.98 3 4.96 3 7 C1.35 6.67 -0.3 6.34 -2 6 C-2 5.34 -2 4.68 -2 4 C-5.3 4 -8.6 4 -12 4 C-12 3.34 -12 2.68 -12 2 C-8.04 2 -4.08 2 0 2 C0 1.34 0 0.68 0 0 Z " fill="#4DAFAE" transform="translate(102,265)"/>
<path d="M0 0 C0.33 0.66 0.66 1.32 1 2 C1.66 2 2.32 2 3 2 C2.67 3.98 2.34 5.96 2 8 C4.11785113 9.11785113 4.11785113 9.11785113 7 10 C7 10.99 7 11.98 7 13 C4.69 13 2.38 13 0 13 C-1.28571429 4.57142857 -1.28571429 4.57142857 0 0 Z " fill="#D5DBDB" transform="translate(428,249)"/>
<path d="M0 0 C0.78375 0.04125 1.5675 0.0825 2.375 0.125 C2.705 2.105 3.035 4.085 3.375 6.125 C0.735 6.455 -1.905 6.785 -4.625 7.125 C-4.75 4.75 -4.75 4.75 -4.625 2.125 C-2.625 0.125 -2.625 0.125 0 0 Z " fill="#3DB7BC" transform="translate(112.625,213.875)"/>
<path d="M0 0 C3.3 0 6.6 0 10 0 C10 1.32 10 2.64 10 4 C6.37 4 2.74 4 -1 4 C-0.67 2.68 -0.34 1.36 0 0 Z " fill="#879799" transform="translate(78,261)"/>
<path d="M0 0 C1.43655854 -0.08131463 2.8744483 -0.13933559 4.3125 -0.1875 C5.51326172 -0.23970703 5.51326172 -0.23970703 6.73828125 -0.29296875 C9.47851584 0.06198392 10.29171079 0.89366282 12 3 C10.71034824 4.37562854 9.37310707 5.70766393 8 7 C7.34 7 6.68 7 6 7 C5.67 7.66 5.34 8.32 5 9 C5 8.01 5 7.02 5 6 C4.34 5.01 3.68 4.02 3 3 C3.33 2.67 3.66 2.34 4 2 C2.68 1.34 1.36 0.68 0 0 Z " fill="#B5BBBD" transform="translate(284,237)"/>
<path d="M0 0 C0 0.99 0 1.98 0 3 C-3.3 3 -6.6 3 -10 3 C-10 1.68 -10 0.36 -10 -1 C-6.06329512 -2.31223496 -3.87511856 -1.24296256 0 0 Z " fill="#8FA0A0" transform="translate(72,260)"/>
<path d="M0 0 C2.475 0.495 2.475 0.495 5 1 C5 1.66 5 2.32 5 3 C5.66 3 6.32 3 7 3 C7 4.65 7 6.3 7 8 C5.35 8 3.7 8 2 8 C0.23537317 4.91190305 0 3.76687864 0 0 Z " fill="#D7DAD9" transform="translate(204,232)"/>
<path d="M0 0 C0.66 0.99 1.32 1.98 2 3 C1.01 3.33 0.02 3.66 -1 4 C-1.103125 4.70125 -1.20625 5.4025 -1.3125 6.125 C-2.31666862 10.32425058 -3.41692494 14.00492425 -7.1875 16.375 C-7.785625 16.58125 -8.38375 16.7875 -9 17 C-7.57997238 13.24069983 -5.87350167 9.77000304 -3.9375 6.25 C-3.14666016 4.80367187 -3.14666016 4.80367187 -2.33984375 3.328125 C-1 1 -1 1 0 0 Z " fill="#318C8B" transform="translate(123,215)"/>
<path d="M0 0 C0.33 0 0.66 0 1 0 C1.33 5.61 1.66 11.22 2 17 C6.627322 17.372678 6.627322 17.372678 9 16 C9 17.32 9 18.64 9 20 C5.37 19.67 1.74 19.34 -2 19 C-1.67 17.68 -1.34 16.36 -1 15 C-0.77711499 12.41343327 -0.58685615 9.84047222 -0.4375 7.25 C-0.39431641 6.55261719 -0.35113281 5.85523438 -0.30664062 5.13671875 C-0.20110404 3.42468078 -0.1001009 1.71236439 0 0 Z " fill="#707E7F" transform="translate(368,237)"/>
<path d="M0 0 C2.61724095 2.36797991 4.32861729 4.89600354 6 8 C6 8.66 6 9.32 6 10 C4.25181409 10.22304441 2.50129677 10.4278645 0.75 10.625 C-0.22453125 10.74101562 -1.1990625 10.85703125 -2.203125 10.9765625 C-5 11 -5 11 -9 9 C-5.7 8.67 -2.4 8.34 1 8 C0.67 5.36 0.34 2.72 0 0 Z " fill="#36898A" transform="translate(161,232)"/>
<path d="M0 0 C0.33 0.66 0.66 1.32 1 2 C1.99 2 2.98 2 4 2 C4 3.32 4 4.64 4 6 C3.01 6.495 3.01 6.495 2 7 C2.33 7.66 2.66 8.32 3 9 C1.1875 8.8125 1.1875 8.8125 -1 8 C-2.8125 5.5625 -2.8125 5.5625 -4 3 C-3 1 -3 1 0 0 Z " fill="#2E8B8D" transform="translate(138,234)"/>
<path d="M0 0 C0.33 0.66 0.66 1.32 1 2 C1.99 2 2.98 2 4 2 C4 2.66 4 3.32 4 4 C-1.28 4 -6.56 4 -12 4 C-12 4.66 -12 5.32 -12 6 C-9.03 6 -6.06 6 -3 6 C-3.33 6.99 -3.66 7.98 -4 9 C-4 8.34 -4 7.68 -4 7 C-6.97 7 -9.94 7 -13 7 C-13 5.68 -13 4.36 -13 3 C-12.14535156 2.95101562 -11.29070312 2.90203125 -10.41015625 2.8515625 C-9.30542969 2.77679688 -8.20070313 2.70203125 -7.0625 2.625 C-5.40927734 2.52058594 -5.40927734 2.52058594 -3.72265625 2.4140625 C-2.37494141 2.20910156 -2.37494141 2.20910156 -1 2 C-0.67 1.34 -0.34 0.68 0 0 Z " fill="#155E61" transform="translate(104,221)"/>
<path d="M0 0 C1.32 0.33 2.64 0.66 4 1 C3.43518386 4.95371299 2.28003407 7.71675094 0 11 C-0.99 11.495 -0.99 11.495 -2 12 C-2 10.68 -2 9.36 -2 8 C-1.34 8 -0.68 8 0 8 C0 5.36 0 2.72 0 0 Z " fill="#3A9EA1" transform="translate(131,273)"/>
<path d="M0 0 C3.96 0 7.92 0 12 0 C12 0.99 12 1.98 12 3 C8.04 3 4.08 3 0 3 C0 2.01 0 1.02 0 0 Z " fill="#AEBCC0" transform="translate(75,227)"/>
<path d="M0 0 C1.65 0.33 3.3 0.66 5 1 C5.33 2.32 5.66 3.64 6 5 C4 6 4 6 1.625 5.5 C-1.03845204 4.9926758 -2.46663295 5.15554432 -5 6 C-3.35 4.02 -1.7 2.04 0 0 Z " fill="#D5DBDB" transform="translate(284,238)"/>
<path d="M0 0 C0.33 1.98 0.66 3.96 1 6 C-0.32 6.33 -1.64 6.66 -3 7 C-3.99 5.35 -4.98 3.7 -6 2 C-3 0 -3 0 0 0 Z " fill="#B1BABB" transform="translate(402,254)"/>
<path d="M0 0 C0.33 0 0.66 0 1 0 C1.33 1.65 1.66 3.3 2 5 C3.32 4.67 4.64 4.34 6 4 C4.92598892 6.91517292 4.22189824 8.77810176 2 11 C1.67 9.68 1.34 8.36 1 7 C-0.32 7 -1.64 7 -3 7 C-1.125 1.125 -1.125 1.125 0 0 Z " fill="#2B7F80" transform="translate(110,237)"/>
<path d="M0 0 C3.125 -0.1875 3.125 -0.1875 6 0 C5.06409496 1.1055189 4.12620142 2.20935453 3.1875 3.3125 C2.40439453 4.23482422 2.40439453 4.23482422 1.60546875 5.17578125 C0.12827531 6.85424679 -1.40039131 8.43882034 -3 10 C-2.25 3.375 -2.25 3.375 0 0 Z " fill="#2F8787" transform="translate(110,220)"/>
<path d="M0 0 C0.33 0 0.66 0 1 0 C1.125 7.75 1.125 7.75 0 10 C0.99 10.33 1.98 10.66 3 11 C3 12.65 3 14.3 3 16 C-0.23026596 13.65071566 -0.94681138 10.7364084 -1.79296875 7.0078125 C-2.07788271 4.24468464 -1.34515374 2.39138443 0 0 Z " fill="#2E7A7E" transform="translate(106,244)"/>
<path d="M0 0 C0.66 0 1.32 0 2 0 C1.67 3.3 1.34 6.6 1 10 C0.67 9.34 0.34 8.68 0 8 C-1.32 8 -2.64 8 -4 8 C-3.34 6.02 -2.68 4.04 -2 2 C-1.34 2 -0.68 2 0 2 C0 1.34 0 0.68 0 0 Z " fill="#43B0B1" transform="translate(98,234)"/>
<path d="M0 0 C0.33 0.99 0.66 1.98 1 3 C1.78375 2.79375 2.5675 2.5875 3.375 2.375 C4.674375 2.189375 4.674375 2.189375 6 2 C6.66 2.66 7.32 3.32 8 4 C5.36 4 2.72 4 0 4 C0.04125 4.94875 0.0825 5.8975 0.125 6.875 C0 10 0 10 -2 12 C-3.35384615 5.72307692 -3.35384615 5.72307692 -1.5625 2.0625 C-1.046875 1.381875 -0.53125 0.70125 0 0 Z " fill="#124C4E" transform="translate(136,274)"/>
<path d="M0 0 C0.99 0.495 0.99 0.495 2 1 C1.67 2.98 1.34 4.96 1 7 C2.98 7.495 2.98 7.495 5 8 C5 7.34 5 6.68 5 6 C5.66 6 6.32 6 7 6 C7 7.32 7 8.64 7 10 C4.69 10 2.38 10 0 10 C0 6.7 0 3.4 0 0 Z " fill="#D0DCDD" transform="translate(326,252)"/>
<path d="M0 0 C2.31 0 4.62 0 7 0 C6.360625 0.4125 5.72125 0.825 5.0625 1.25 C2.79009069 3.17810487 2.39803561 4.11424181 2 7 C0.68 7 -0.64 7 -2 7 C-2.33 5.68 -2.66 4.36 -3 3 C-2.34 3 -1.68 3 -1 3 C-0.67 2.01 -0.34 1.02 0 0 Z " fill="#C1C9C9" transform="translate(195,255)"/>
<path d="M0 0 C1.3271261 3.9813783 1.06915913 7.85045227 1 12 C-0.32 11.67 -1.64 11.34 -3 11 C-3 7.75888653 -2.25432529 5.95135362 -1 3 C-0.67 2.01 -0.34 1.02 0 0 Z " fill="#8D9494" transform="translate(427,250)"/>
<path d="M0 0 C3.75376152 1.25125384 4.24073289 2.5652404 6 6 C6 6.66 6 7.32 6 8 C2.7 8 -0.6 8 -4 8 C-4.33 7.34 -4.66 6.68 -5 6 C-2.69 6.33 -0.38 6.66 2 7 C2 5.35 2 3.7 2 2 C1.34 2 0.68 2 0 2 C0 1.34 0 0.68 0 0 Z " fill="#9DADAC" transform="translate(209,233)"/>
<path d="M0 0 C1.32 0 2.64 0 4 0 C4.33 2.31 4.66 4.62 5 7 C4.01 6.34 3.02 5.68 2 5 C1.01 5.495 1.01 5.495 0 6 C0 5.34 0 4.68 0 4 C-0.66 3.67 -1.32 3.34 -2 3 C-1.34 2.01 -0.68 1.02 0 0 Z " fill="#3FB6B8" transform="translate(132,223)"/>
<path d="M0 0 C2.97 0.495 2.97 0.495 6 1 C4.68 1.33 3.36 1.66 2 2 C2 2.99 2 3.98 2 5 C0.35 5.33 -1.3 5.66 -3 6 C-3.33 4.68 -3.66 3.36 -4 2 C-2.68 2 -1.36 2 0 2 C0 1.34 0 0.68 0 0 Z " fill="#001D20" transform="translate(83,230)"/>
<path d="M0 0 C0.66 0 1.32 0 2 0 C1.34 3.96 0.68 7.92 0 12 C-0.66 12 -1.32 12 -2 12 C-2.05422947 10.5629191 -2.09289723 9.12524538 -2.125 7.6875 C-2.14820312 6.88699219 -2.17140625 6.08648437 -2.1953125 5.26171875 C-2 3 -2 3 0 0 Z " fill="#3A8B8C" transform="translate(107,211)"/>
<path d="M0 0 C0.99 0 1.98 0 3 0 C3.33 1.32 3.66 2.64 4 4 C3.34 4 2.68 4 2 4 C2 4.99 2 5.98 2 7 C5.3 7 8.6 7 12 7 C11.67 7.66 11.34 8.32 11 9 C7.7 8.67 4.4 8.34 1 8 C0.67 5.36 0.34 2.72 0 0 Z " fill="#033637" transform="translate(88,262)"/>
<path d="M0 0 C0.99 0.33 1.98 0.66 3 1 C3 1.66 3 2.32 3 3 C2.01 3.66 1.02 4.32 0 5 C1.65 5.33 3.3 5.66 5 6 C5 6.33 5 6.66 5 7 C2.03 6.67 -0.94 6.34 -4 6 C-3.34 5.67 -2.68 5.34 -2 5 C-2 3.68 -2 2.36 -2 1 C-1.34 0.67 -0.68 0.34 0 0 Z " fill="#A7AEAF" transform="translate(233,256)"/>
<path d="M0 0 C0.66666667 1.33333333 1.33333333 2.66666667 2 4 C2.53625 5.03125 3.0725 6.0625 3.625 7.125 C5 10 5 10 5 12 C2.525 11.01 2.525 11.01 0 10 C1 8 1 8 2 7 C1.01 6.67 0.02 6.34 -1 6 C-0.67 4.02 -0.34 2.04 0 0 Z " fill="#287679" transform="translate(96,248)"/>
<path d="M0 0 C0.66 0.66 1.32 1.32 2 2 C1.73441476 5.85098598 -0.56043348 8.16695501 -3 11 C-3 9.68 -3 8.36 -3 7 C-2.34 7 -1.68 7 -1 7 C-1 5.68 -1 4.36 -1 3 C-1.66 2.67 -2.32 2.34 -3 2 C-2.01 1.34 -1.02 0.68 0 0 Z " fill="#2F898E" transform="translate(161,263)"/>
<path d="M0 0 C1.33998047 0.06960937 1.33998047 0.06960937 2.70703125 0.140625 C3.60808594 0.17671875 4.50914062 0.2128125 5.4375 0.25 C6.46810547 0.31960937 6.46810547 0.31960937 7.51953125 0.390625 C7.18953125 1.380625 6.85953125 2.370625 6.51953125 3.390625 C6.51953125 2.730625 6.51953125 2.070625 6.51953125 1.390625 C4.94171875 1.8546875 4.94171875 1.8546875 3.33203125 2.328125 C0.39200729 3.14747594 -2.48208498 3.84546431 -5.48046875 4.390625 C-3.17521711 0.50003419 -3.17521711 0.50003419 0 0 Z " fill="#5A696A" transform="translate(207.48046875,250.609375)"/>
<path d="M0 0 C-1.93254772 2.0245738 -3.63158688 3.42105792 -6 5 C-6.99 5 -7.98 5 -9 5 C-9.33 4.01 -9.66 3.02 -10 2 C-6.3558226 -0.4294516 -4.28758728 -0.16179575 0 0 Z " fill="#D6DCDC" transform="translate(275,238)"/>
<path d="M0 0 C4.92127034 -0.16682272 8.50343896 -0.24828052 13 2 C10.36095629 3.41377341 7.92879371 4.37240135 5 5 C5 4.01 5 3.02 5 2 C3.35 1.67 1.7 1.34 0 1 C0 0.67 0 0.34 0 0 Z " fill="#95A1A1" transform="translate(196,230)"/>
<path d="M0 0 C3.03153686 0.32773371 4.61573103 0.64134897 6.875 2.75 C8.29737468 5.59474935 7.91172698 7.01616624 7 10 C5.0549 7.08235 4.54723683 5.37462715 4 2 C3.01 2.33 2.02 2.66 1 3 C0.67 2.01 0.34 1.02 0 0 Z " fill="#286E6C" transform="translate(110,210)"/>
<path d="M0 0 C2.31 0 4.62 0 7 0 C6.67 0.66 6.34 1.32 6 2 C6.66 2.66 7.32 3.32 8 4 C5.03 3.67 2.06 3.34 -1 3 C-0.67 2.01 -0.34 1.02 0 0 Z " fill="#40B6B8" transform="translate(118,281)"/>
<path d="M0 0 C2 1.3125 2 1.3125 4 4 C4.36089448 7.68855385 4.22933459 11.3051649 4 15 C3.67 15 3.34 15 3 15 C3 11.7 3 8.4 3 5 C0.525 4.01 0.525 4.01 -2 3 C-1.34 2.67 -0.68 2.34 0 2 C0 1.34 0 0.68 0 0 Z " fill="#859191" transform="translate(244,240)"/>
<path d="M0 0 C0.33 1.32 0.66 2.64 1 4 C-1.475 5.485 -1.475 5.485 -4 7 C-4 5.35 -4 3.7 -4 2 C-2.68 1.34 -1.36 0.68 0 0 Z " fill="#CFD2D2" transform="translate(414,249)"/>
<path d="M0 0 C1.65 0 3.3 0 5 0 C5 1.65 5 3.3 5 5 C4.01 4.67 3.02 4.34 2 4 C-0.14255793 4.38932856 -0.14255793 4.38932856 -2 5 C-1.34 3.35 -0.68 1.7 0 0 Z " fill="#D8DADC" transform="translate(412,246)"/>
<path d="M0 0 C1.73662334 3.22515763 2.8905928 6.51329166 4 10 C3.34 10.66 2.68 11.32 2 12 C2 10.68 2 9.36 2 8 C1.01 8 0.02 8 -1 8 C-0.67 5.36 -0.34 2.72 0 0 Z " fill="#2B7F82" transform="translate(111,248)"/>
<path d="M0 0 C2.64 0.33 5.28 0.66 8 1 C6.25 5.875 6.25 5.875 4 7 C4 6.01 4 5.02 4 4 C1.525 3.01 1.525 3.01 -1 2 C-0.67 1.34 -0.34 0.68 0 0 Z " fill="#1E6367" transform="translate(99,230)"/>
<path d="M0 0 C2 1.375 2 1.375 4 3 C4 3.66 4 4.32 4 5 C3.01 5.33 2.02 5.66 1 6 C1 5.34 1 4.68 1 4 C-0.32 4 -1.64 4 -3 4 C-2.67 3.01 -2.34 2.02 -2 1 C-1.34 0.67 -0.68 0.34 0 0 Z " fill="#3EA0A4" transform="translate(107,272)"/>
<path d="M0 0 C2.9297008 2.82506863 5.50174717 5.78796065 8 9 C6.68 9 5.36 9 4 9 C4 8.34 4 7.68 4 7 C3.01 6.67 2.02 6.34 1 6 C0.67 4.02 0.34 2.04 0 0 Z " fill="#216B6A" transform="translate(115,258)"/>
<path d="M0 0 C0.66 0 1.32 0 2 0 C2 1.65 2 3.3 2 5 C0.35 5 -1.3 5 -3 5 C-3.33 4.01 -3.66 3.02 -4 2 C-2.68 2 -1.36 2 0 2 C0 1.34 0 0.68 0 0 Z " fill="#43A3A5" transform="translate(99,260)"/>
<path d="M0 0 C0 1.65 0 3.3 0 5 C-2.31 5 -4.62 5 -7 5 C-7 4.34 -7 3.68 -7 3 C-1.125 0 -1.125 0 0 0 Z " fill="#D1DCDE" transform="translate(264,257)"/>
<path d="M0 0 C2.79872437 2.52788007 4.45773019 4.20411134 5 8 C4.01 8 3.02 8 2 8 C0.23537317 4.91190305 0 3.76687864 0 0 Z " fill="#328589" transform="translate(152,217)"/>
<path d="M0 0 C0.33 0.66 0.66 1.32 1 2 C0.01 2.33 -0.98 2.66 -2 3 C-2.99 4.485 -2.99 4.485 -4 6 C-4 5.34 -4 4.68 -4 4 C-4.99 4 -5.98 4 -7 4 C-7 3.01 -7 2.02 -7 1 C-4.53721199 -0.231394 -2.7204945 -0.07159196 0 0 Z " fill="#3BA4A6" transform="translate(151,215)"/>
<path d="M0 0 C0 0.99 0 1.98 0 3 C-2.64 3 -5.28 3 -8 3 C-8 2.34 -8 1.68 -8 1 C-5.07175348 0.02391783 -3.04386724 -0.08226668 0 0 Z " fill="#3AB8B8" transform="translate(144,216)"/>
<path d="M0 0 C0.66 0.33 1.32 0.66 2 1 C1.67 2.98 1.34 4.96 1 7 C-0.65 7.33 -2.3 7.66 -4 8 C-3.625 6.0625 -3.625 6.0625 -3 4 C-2.34 3.67 -1.68 3.34 -1 3 C-0.67 2.01 -0.34 1.02 0 0 Z " fill="#3AB9BB" transform="translate(156,268)"/>
<path d="M0 0 C0.99 0.33 1.98 0.66 3 1 C3 2.98 3 4.96 3 7 C1.35 6.01 -0.3 5.02 -2 4 C-1.34 2.68 -0.68 1.36 0 0 Z " fill="#D9DADB" transform="translate(242,251)"/>
<path d="M0 0 C7.50769231 0.61538462 7.50769231 0.61538462 10 2.5625 C10.33 3.036875 10.66 3.51125 11 4 C8.69 4 6.38 4 4 4 C4 3.34 4 2.68 4 2 C2.68 1.67 1.36 1.34 0 1 C0 0.67 0 0.34 0 0 Z " fill="#093A3D" transform="translate(115,276)"/>
<path d="M0 0 C0.66 0 1.32 0 2 0 C1.50168276 3.68754757 0.89932357 5.60490662 -2 8 C-2 6.02 -2 4.04 -2 2 C-1.34 2 -0.68 2 0 2 C0 1.34 0 0.68 0 0 Z " fill="#328E8F" transform="translate(101,236)"/>
<path d="M0 0 C1.32 0 2.64 0 4 0 C4 1.65 4 3.3 4 5 C2.35 4.67 0.7 4.34 -1 4 C-0.67 2.68 -0.34 1.36 0 0 Z " fill="#40B4B3" transform="translate(103,226)"/>
<path d="M0 0 C1.32 0.33 2.64 0.66 4 1 C3.67 2.65 3.34 4.3 3 6 C2.67 5.34 2.34 4.68 2 4 C1.34 4 0.68 4 0 4 C0 2.68 0 1.36 0 0 Z " fill="#41B0B0" transform="translate(131,273)"/>
<path d="M0 0 C2.64 0 5.28 0 8 0 C7.67 0.99 7.34 1.98 7 3 C5.02 3 3.04 3 1 3 C0.67 2.01 0.34 1.02 0 0 Z " fill="#9AA6A8" transform="translate(196,260)"/>
<path d="M0 0 C0.99 0 1.98 0 3 0 C2.34 4.29 1.68 8.58 1 13 C0.67 13 0.34 13 0 13 C0 8.71 0 4.42 0 0 Z " fill="#D2DCDA" transform="translate(361,238)"/>
<path d="M0 0 C1 2 1 2 0.25 5.0625 C-0.1625 6.031875 -0.575 7.00125 -1 8 C-1.99 8.33 -2.98 8.66 -4 9 C-2.94124926 5.59687262 -1.99097846 2.98646769 0 0 Z " fill="#23696D" transform="translate(153,268)"/>
<path d="M0 0 C0.66 0.33 1.32 0.66 2 1 C1.67 2.32 1.34 3.64 1 5 C-0.32 4.67 -1.64 4.34 -3 4 C-3 3.01 -3 2.02 -3 1 C-2.01 0.67 -1.02 0.34 0 0 Z " fill="#3DB4B4" transform="translate(103,267)"/>
<path d="M0 0 C1.32 0 2.64 0 4 0 C2.25 5.75 2.25 5.75 0 8 C0 5.33333333 0 2.66666667 0 0 Z " fill="#2E888A" transform="translate(137,266)"/>
<path d="M0 0 C1.21236328 0.04060547 1.21236328 0.04060547 2.44921875 0.08203125 C3.06410156 0.11683594 3.67898438 0.15164062 4.3125 0.1875 C4.3125 0.5175 4.3125 0.8475 4.3125 1.1875 C2.7346875 1.4040625 2.7346875 1.4040625 1.125 1.625 C-1.84210549 2.06276966 -4.75544366 2.56554866 -7.6875 3.1875 C-5.26849268 0.20484049 -3.789448 -0.16475861 0 0 Z " fill="#8B9C9D" transform="translate(420.6875,236.8125)"/>
<path d="M0 0 C0.66 0.99 1.32 1.98 2 3 C1.01 3.33 0.02 3.66 -1 4 C-1 4.99 -1 5.98 -1 7 C-1.99 7.33 -2.98 7.66 -4 8 C-2.87548273 5.0280615 -1.77706209 2.66559313 0 0 Z " fill="#287277" transform="translate(123,215)"/>
</svg>
